<svg id="レイヤー_1" data-name="レイヤー 1" xmlns="http://www.w3.org/2000/svg" viewBox="0 0 78 54"><defs><style>.cls-1{fill:#fdc300;}.cls-2{fill:#e71784;}</style></defs><path class="cls-1" d="M36,8l30.33,4a7.16,7.16,0,0,1,7.16,7.18v4.8H36V8"/><path class="cls-2" d="M77,25.88a3.93,3.93,0,0,0,.53-1.95h0v-4.8h0a11,11,0,0,0-1.31-5.24A11.15,11.15,0,0,0,66.63,8L36.54,4A3.15,3.15,0,0,0,36,4a4,4,0,0,0-4,4h0v2.73a10.39,10.39,0,0,0-15.6-2.57V4a4,4,0,0,0-4-4H4A4,4,0,0,0,0,4V50a4,4,0,0,0,4,4h8.41a4,4,0,0,0,4-4V42.5H61.58V50a4,4,0,0,0,4,4H74a4,4,0,0,0,4-4V28.53A4,4,0,0,0,77,25.88ZM73.5,19.13v4.8H36V8l30.33,4a7.17,7.17,0,0,1,7.16,7.18ZM23.08,9.66a6.57,6.57,0,1,1-6.55,6.57A6.56,6.56,0,0,1,23.08,9.66ZM74,38.5h0V50H65.58V38.5H12.41V50H4V4h8.41V28.53H74Z"/></svg>