<svg id="レイヤー_1" data-name="レイヤー 1" xmlns="http://www.w3.org/2000/svg" viewBox="0 0 41.11 39.05"><defs><style>.cls-1{fill:#fff;}</style></defs><path class="cls-1" d="M40.11,16.77C40.11,8.08,31.34,1,20.55,1S1,8.08,1,16.77c0,7.8,7,14.33,16.35,15.57.64.14,1.51.42,1.73,1a4,4,0,0,1,.06,1.76l-.28,1.66c-.08.49-.39,1.92,1.69,1.05s11.27-6.59,15.37-11.29h0C38.75,23.39,40.11,20.26,40.11,16.77ZM13.66,21.43a.38.38,0,0,1-.38.37H7.79a.38.38,0,0,1-.38-.37h0V12.94a.38.38,0,0,1,.38-.37H9.18a.39.39,0,0,1,.37.37v6.74h3.73a.38.38,0,0,1,.38.36h0Zm3.3,0a.38.38,0,0,1-.37.37H15.2a.39.39,0,0,1-.37-.37V12.94a.39.39,0,0,1,.37-.37h1.39a.38.38,0,0,1,.37.37h0Zm9.44,0a.38.38,0,0,1-.37.37H24.46a.28.28,0,0,1-.1-.09l-3.91-5.25v5a.39.39,0,0,1-.37.37H18.67a.38.38,0,0,1-.37-.37h0V12.94a.38.38,0,0,1,.37-.37h1.55L24.27,18V13a.39.39,0,0,1,.37-.37H26a.38.38,0,0,1,.37.37h0ZM34,14.32a.38.38,0,0,1-.37.37H29.87v1.43H33.6a.38.38,0,0,1,.38.38h0v1.37a.38.38,0,0,1-.37.37H29.87v1.44H33.6A.38.38,0,0,1,34,20h0v1.38a.38.38,0,0,1-.38.37H28.11a.38.38,0,0,1-.37-.37h0V13h0a.38.38,0,0,1,.37-.37H33.6A.38.38,0,0,1,34,13Z"/></svg>