<svg id="レイヤー_1" data-name="レイヤー 1" xmlns="http://www.w3.org/2000/svg" viewBox="0 0 71.98 81.97"><defs><style>.cls-1{fill:#fdc300;}.cls-2{fill:#e71784;}</style></defs><path class="cls-1" d="M59,4a8.45,8.45,0,0,0,1.17,3c2.15,4,6.59,10,7.82,10-1.23,0-5.67,6-7.82,10A8.54,8.54,0,0,0,59,30c0-1.33-2.33-5.27-4.65-8.47C52.53,19,50.72,17,50,17c.72,0,2.53-2,4.34-4.52C56.66,9.27,59,5.33,59,4"/><path class="cls-2" d="M59,4a8.45,8.45,0,0,0,1.17,3c2.15,4,6.59,10,7.82,10-1.23,0-5.67,6-7.82,10A8.54,8.54,0,0,0,59,30c0-1.33-2.33-5.27-4.65-8.47C52.53,19,50.72,17,50,17c.72,0,2.53-2,4.34-4.52C56.66,9.27,59,5.33,59,4M44.08,32a3.9,3.9,0,0,1,3.55,2.29l2,4.54a3.9,3.9,0,0,0,3.56,2.28h6.87A3.89,3.89,0,0,1,64,45V74.1A3.88,3.88,0,0,1,60.11,78H7.89A3.88,3.88,0,0,1,4,74.1V45a3.89,3.89,0,0,1,3.89-3.88h6.87a3.9,3.9,0,0,0,3.56-2.28l2.05-4.54A3.9,3.9,0,0,1,23.92,32H44.08M59,0a4,4,0,0,0-4,3.62,34.07,34.07,0,0,1-3.91,6.49,25.2,25.2,0,0,1-2.61,3.16,4,4,0,0,0,0,7.41,25.64,25.64,0,0,1,2.61,3.17A34.07,34.07,0,0,1,55,30.34a4,4,0,0,0,8,0,11,11,0,0,1,.72-1.52,42.07,42.07,0,0,1,5.79-8.14,4,4,0,0,0,0-7.42,42.4,42.4,0,0,1-5.79-8.14A11,11,0,0,1,63,3.61,4,4,0,0,0,59,0ZM44.08,28H23.92a7.91,7.91,0,0,0-7.19,4.63l-2,4.48H7.89A7.89,7.89,0,0,0,0,45V74.1A7.89,7.89,0,0,0,7.89,82H60.11A7.89,7.89,0,0,0,68,74.1V45a7.89,7.89,0,0,0-7.89-7.88H53.3l-2-4.47A7.9,7.9,0,0,0,44.08,28Z"/><path class="cls-2" d="M34,42.18A16.44,16.44,0,1,0,50.51,58.62,16.49,16.49,0,0,0,34,42.18Zm0,19.9a3.46,3.46,0,1,1,3.48-3.46A3.47,3.47,0,0,1,34,62.08Z"/><path class="cls-1" d="M34,46A12.64,12.64,0,1,0,46.71,58.62,12.68,12.68,0,0,0,34,46Zm0,19.43a6.79,6.79,0,1,1,6.81-6.79A6.81,6.81,0,0,1,34,65.41Z"/></svg>