<svg id="レイヤー_1" data-name="レイヤー 1" xmlns="http://www.w3.org/2000/svg" viewBox="0 0 68 82.02"><defs><style>.cls-1{fill:none;}.cls-2{fill:#e71784;}.cls-3{fill:#fdc300;}</style></defs><polygon class="cls-1" points="46.41 77.02 63 68.87 63 32.9 46.41 41.58 46.41 77.02"/><path class="cls-1" d="M34,24.14a2.74,2.74,0,1,0-2.72-2.74A2.74,2.74,0,0,0,34,24.14Z"/><path class="cls-1" d="M25.71,46.22V68.87L42.29,77V46.22C38.2,51.84,34,57.1,34,57.1S29.8,51.84,25.71,46.22Z"/><path class="cls-1" d="M34,24.14a2.74,2.74,0,1,0-2.72-2.74A2.74,2.74,0,0,0,34,24.14Z"/><path class="cls-1" d="M25.71,46.22V68.87L42.29,77V46.22C38.2,51.84,34,57.1,34,57.1S29.8,51.84,25.71,46.22Z"/><polygon class="cls-1" points="46.41 77.02 63 68.87 63 32.9 46.41 41.58 46.41 77.02"/><polygon class="cls-1" points="46.41 77.02 63 68.87 63 32.9 46.41 41.58 46.41 77.02"/><path class="cls-1" d="M25.71,46.22V68.87L42.29,77V46.22C38.2,51.84,34,57.1,34,57.1S29.8,51.84,25.71,46.22Z"/><path class="cls-1" d="M34,24.14a2.74,2.74,0,1,0-2.72-2.74A2.74,2.74,0,0,0,34,24.14Z"/><path class="cls-2" d="M65.07,29.48a4,4,0,0,0-3.93-.13L49,35.74c1.26-1.87,2.4-3.64,3.22-5.13C56.34,23.1,54.79,13.38,48.4,7A20.33,20.33,0,0,0,19.6,7c-6.39,6.4-7.94,16.12-3.77,23.63.1.19.23.4.35.6L3.14,38A4,4,0,0,0,1,41.58V77a4,4,0,0,0,1.88,3.39,4,4,0,0,0,3.88.2l16.59-8.15c.11-.06.19-.14.3-.2s.18.14.29.2l16.59,8.15a4.05,4.05,0,0,0,1.76.41,4,4,0,0,0,2.06-.58,4,4,0,0,0,2.06.58,4.1,4.1,0,0,0,1.77-.41l16.58-8.15A4,4,0,0,0,67,68.87v-36A4,4,0,0,0,65.07,29.48ZM21.59,68.87,5,77V41.58l13.41-7a13.66,13.66,0,0,0,.91,2.08c.6,1.07,1.39,2.33,2.27,3.67ZM34,18.66a2.74,2.74,0,1,1-2.72,2.74A2.74,2.74,0,0,1,34,18.66ZM42.29,77,25.71,68.87V46.22C29.8,51.84,34,57.1,34,57.1s4.2-5.26,8.29-10.88ZM63,68.87,46.41,77V41.58L63,32.9Z"/><path class="cls-1" d="M34,18.66a2.74,2.74,0,1,0,2.73,2.74A2.73,2.73,0,0,0,34,18.66Z"/><path class="cls-3" d="M45.57,9.8a16.34,16.34,0,0,0-23.14,0C17.34,14.91,16,22.69,19.32,28.67,23.13,35.53,34,49.13,34,49.13s10.87-13.6,14.68-20.46C52,22.69,50.66,14.91,45.57,9.8ZM34,28.14a6.74,6.74,0,1,1,6.73-6.74A6.73,6.73,0,0,1,34,28.14Z"/><path class="cls-1" d="M34,18.66a2.74,2.74,0,1,0,2.73,2.74A2.73,2.73,0,0,0,34,18.66Z"/><path class="cls-1" d="M34,18.66a2.74,2.74,0,1,0,2.73,2.74A2.73,2.73,0,0,0,34,18.66Z"/><polygon class="cls-1" points="46.41 77.02 63 68.87 63 32.9 46.41 41.58 46.41 77.02"/></svg>