<svg xmlns="http://www.w3.org/2000/svg" xmlns:xlink="http://www.w3.org/1999/xlink" viewBox="0 0 658.7 719.42">
  <defs>
    <style>
      .cls-1, .cls-4 {
        fill: none;
      }

      .cls-2 {
        clip-path: url(#clip-path);
      }

      .cls-3 {
        clip-path: url(#clip-path-2);
      }

      .cls-4 {
        stroke: #a0a0a0;
        stroke-miterlimit: 10;
      }

      .cls-5 {
        clip-path: url(#clip-path-3);
      }

      .cls-6 {
        clip-path: url(#clip-path-4);
      }

      .cls-7 {
        font-size: 16px;
        fill: #898989;
        font-family: RodinPro-DB-83pv-RKSJ-H, FOT-Rodin Pro;
      }

      .cls-8 {
        letter-spacing: -0.03em;
      }

      .cls-9 {
        letter-spacing: -0.02em;
      }

      .cls-10 {
        letter-spacing: -0.01em;
      }

      .cls-11 {
        letter-spacing: -0.13em;
      }

      .cls-12 {
        letter-spacing: -0.08em;
      }

      .cls-13 {
        letter-spacing: -0.1em;
      }

      .cls-14 {
        letter-spacing: -0.07em;
      }

      .cls-15 {
        letter-spacing: -0.15em;
      }

      .cls-16 {
        letter-spacing: -0.11em;
      }
    </style>
    <clipPath id="clip-path">
      <rect class="cls-1" x="1.8" y="0.01" width="656.82" height="712"/>
    </clipPath>
    <clipPath id="clip-path-2">
      <path class="cls-1" d="M718.89,419.27c-3.2-27.15-11.22-53.65-13.08-80.92-2.31-34,5-67.78,7.6-101.73A374,374,0,0,0,658.56,12.08C640.83-16.45,618.62-43,589.7-60.14,560.47-77.42,526.11-84,492.25-86.56,434.2-91,375.74-84.43,317.68-88.65c-82.68-6-164.19-33.75-246.73-26-21,2-62.69,9.46-65.53,35.71C4.33-68.8,7.84-57.57,13.67-46.77c-51.43-6.34-105.58,9.11-152.55,32.94-52.53,26.65-100.77,64.69-130.46,115.57S-308,217.42-284.18,271.29c11.14,25.2,28.7,47,47,67.6,48.69,54.95,103.94,104.18,148.42,162.6,15.44,20.28,30.12,42.16,51.72,55.7,22.31,14,49.55,17.44,75.86,18.4,20.54.76,42.28-.13,59.68-11.06a29.49,29.49,0,0,0,4.54-3.16c8.14-6.22,14.55-14.37,19.81-23.1,5.42-9,9.46-18.58,13.72-28.14a2.33,2.33,0,0,1,.36-.63c.85-1,2.67-.12,3.65-1a2.46,2.46,0,0,0,.54-.8c.42-.84,1.16-1.22,1.27-2.15a2.06,2.06,0,0,1,.34-1,1.19,1.19,0,0,1,.15-.18s0,0,.06-.07a.12.12,0,0,0,0-.1.59.59,0,0,0,.57-.14c.12-.11.32-.39.22-.57v0s.06-.06.08-.09a.3.3,0,0,0,0-.16l0-.38c0-.24,0-.48,0-.72q0-.6-.06-1.2a6.82,6.82,0,0,0-.41-1.73,7.2,7.2,0,0,0-.58-1.1,5.41,5.41,0,0,1-.45-.86,2.25,2.25,0,0,1,0-1.18c3.64-11.83,9-23.07,12.61-34.92a220.56,220.56,0,0,0,8-36.07A181.34,181.34,0,0,0,137.66,307.6c-6.28-10.16-13.7-20-16.38-31.63-2.14-9.3-1.06-19-.32-28.49,1.9-24.45,1.32-49.78-8.09-72.42-4.73-11.38-11.56-21.75-16.92-32.85C80,109.09,78.46,69.56,90.57,35c2.51-7.19,6.17-13,8.81-18.48a114.38,114.38,0,0,0,43.67-.88C157.23,12.5,170.69,6.73,184.71,3a152,152,0,0,1,70.6-1.85C273.32,5,292,13.25,300.67,29.48c3.78,7,5.42,15.11,9.48,22C324,74.85,357,74.65,382.6,83.72c33.72,12,58.47,45.79,59.65,81.55.33,9.76-.78,20.24,4.21,28.64,3.48,5.87,9.44,9.75,15.11,13.55C474.83,216.34,488,226.29,496,240.1s9.73,32.39.23,45.22c-4.3,5.81-10.42,9.87-17,12.71-6.28,2.71-16.7-.91-23.29-4.45-.66-.35-1-2.42-1.33-.12-.09.53,1.72,4.16,1.21,4s-2.19,1.21-2.48,1.66a1.78,1.78,0,0,0-.15,1.16,28.58,28.58,0,0,0,.63,3.68,1.17,1.17,0,0,1,0,.92,1.1,1.1,0,0,1-.65.4c-4,1.17-8.35,1.67-12.44,2.51l-13.16,2.71-26.32,5.42c-13.61,2.79-27.73,5.83-38.71,14.33S344.87,354.48,351,366.93c2.66,5.38,7.36,9.57,9.79,15.05,8,18.15-16.91,37.24-27.17,54.23-11.92,19.75-6.19,42.43-5.74,65.5.19,10.31.45,20.92,4.49,30.41,4.36,10.27,12.71,18.22,20.83,25.87l39.54,37.2c24.46,23,51.54,47.27,85,50.45,14.38,1.38,28.82-1.35,42.91-4.5,29.75-6.64,59-15.21,88.29-23.77,27.64-8.09,56.74-17.08,76.08-38.41,15.32-16.89,22.54-39.52,27.45-61.79C719.55,485.09,722.73,451.91,718.89,419.27Z"/>
    </clipPath>
    <clipPath id="clip-path-3">
      <rect class="cls-1" x="136.29" y="635.33" width="276" height="84"/>
    </clipPath>
    <clipPath id="clip-path-4">
      <path class="cls-1" d="M343.52,686.6a63.87,63.87,0,0,0-14.86-2.16,75.11,75.11,0,0,1-7.77-.76c-2.21-.25-4.85-.75-7-.14-.36.1-1-.12-1.37-.07-.21,0-.33.22-.41.41s1.38,1,1.48,1.12a2.72,2.72,0,0,0,.51.56c1.26.84-.14-.18-.1-.15s-.37.07-.37.17c0,.43-.12.31.15.73a6.8,6.8,0,0,1,.51.91c.21.42.5,1,.22,1.51a12.89,12.89,0,0,0,0,2.24,4.59,4.59,0,0,0,.81,2c.66.88-2.52-.58-2.33.5.39,2.26,1.8,4.66,2.65,6.79l3.07,7.66c.63,1.57,1.26,3.33.64,4.91-.78,2-3.11,2.72-5.16,3.21a213.68,213.68,0,0,1-56.4,5.69c-7.4-.24-16.65-2.42-18.05-9.69-.39-2.05,0-4.22-.68-6.2a12.79,12.79,0,0,0-3-4.43c-2.84-3.11-3.29-6.47-6.25-9.46a21.92,21.92,0,0,1-5.31-9.59c-.21-.77-3-1.29-3.27-2-.32-.94-2.21-7.18-2.94-7-1.76.36-1.48,0-1.75-.42-.55-.85-1.05,5.29-2,5.53-2.85.69-4.86-1.22-7.12-2.58A57.76,57.76,0,0,0,199.9,672a44.57,44.57,0,0,0-16-3.63c-3.38-.1-7.31.54-9,3.47-1.14,2-.91,4.41-.65,6.67q1.4,12.23,2.8,24.43c.48,4.23,1,8.61,3.31,12.19,1.9,3,4.84,5.12,7.86,6.93,7.27,4.34,15.35,7.14,23.47,9.52a267.66,267.66,0,0,0,124,6.14c18.33-3.44,37.3-9.43,49.68-23.37C400.2,697.73,354.1,689.19,343.52,686.6Z"/>
    </clipPath>
  </defs>
  <g id="line">
    <rect class="cls-1" x="1.8" y="-0.17" width="619.48" height="719.5"/>
    <g class="cls-2">
      <g class="cls-3">
        <g>
          <g>
            <path class="cls-4" d="M128.52,409.22c-.61.26-.84-1-.67-1.32s.89-.8,1.11-.4A1.2,1.2,0,0,1,128.52,409.22Z"/>
            <path class="cls-4" d="M129.14,410.33a1.81,1.81,0,0,0-.18,2.12c.53.66,1.24.18,1.41-.49S129.71,409.89,129.14,410.33Z"/>
            <path class="cls-4" d="M130.11,413.25c-.71.18-.89,1.1-.53,1.32s.84-.13,1-.31S130.29,413.2,130.11,413.25Z"/>
            <path class="cls-4" d="M100.12,404.76c-.53-.07-.11-1-.48-1.14s-1-.85-.43-1,1,.68,1.39.34.65-1,.94-.42S100.57,404.81,100.12,404.76Z"/>
            <path class="cls-4" d="M100.79,192c.1-.61.57-1.28-.58-1.46s-1.28,0-2-.57-.62-1.77-2-1.07-3.89,3.14-3,4,1.73.31,1.73,1.86-1.37,1.94-.62,3.4,1.86,3.67,2.61,4,1.55.49,1.68,0a3,3,0,0,0,.22-2.26c-.4-1.06.71-2,.71-2.87s-.93-1.73-.58-2.61S100.65,192.73,100.79,192Z"/>
            <path class="cls-4" d="M100.26,198.08c-.31.14-.36,1.24-.27,1.68s-.44,2.13.13,2a2.76,2.76,0,0,0,1.42-2c-.05-.62-1.15-2-1.24-1.73"/>
            <path class="cls-4" d="M102.25,232.49c-.08.39.7,2.79.53,3.45s-.93,1.46-.36,1.37a1,1,0,0,0,1-.88,3.61,3.61,0,0,0-.09-2.52C102.87,233.16,102.33,232.05,102.25,232.49Z"/>
            <path class="cls-4" d="M109.37,300.91c-.42.6-1.77,1.33-1.51,1.82s1,1.15,1.51.66S109.68,300.47,109.37,300.91Z"/>
            <path class="cls-4" d="M128.21,315.2c.08-.53-.31-1.46-.62-1.37a.7.7,0,0,0-.49.93,4.34,4.34,0,0,1,0,2.12,8.73,8.73,0,0,0-.62,3.27c.17.66.7,2,.88,1.73s.27-2.79.67-3.5,1.06-1.1.92-1.94S128.16,315.46,128.21,315.2Z"/>
            <path class="cls-4" d="M114.19,316.17c-.47,0-.84.75-.84,1.55s.44,3.27.7,2.78a7.32,7.32,0,0,0,.76-2.78C114.76,316.92,115.11,316.17,114.19,316.17Z"/>
            <path class="cls-4" d="M129.27,347.57c-.3.55-.58,1.06-.45,3.1s1.55,6.19,1.77,7.69,2,6.28,2.26,6-.35-3.05-.71-4.29-1.06-3-.4-3.54,1.55-2.17.53-2.52-1-.75-1.32-2.12S129.53,347.09,129.27,347.57Z"/>
            <path class="cls-4" d="M140.46,347.26s.13,1.46.17,1.77-.08,1.24.58,1,1.33-.09.88-1.06S140.81,346.6,140.46,347.26Z"/>
            <path class="cls-4" d="M144,349.61c-.54-.61-1.37-.53-1.28,0s.62,1.32.93,1.06S144.3,350,144,349.61Z"/>
            <path class="cls-4" d="M136.26,375.7c0-.64-1.15-1.28-1.73-1.37s-1.72-1.24-2.12-.66a7.77,7.77,0,0,0-.93,2.61c-.13.79-.36,1.76.09,2.29a9.06,9.06,0,0,1,1.1,2.08c.09.31-.53.58-.62,1.51s1.42,2.25.93,3.76-1.81,2.56-1.59,3.36,2,1.28,2.52,1.06,2.35-3.1,3.36-4.38,1.68-2.12,1.68-2.74.09-3.85.09-4.6-.75-1.81-.88-1.28-.45,3.23-1.15,2.78a3.72,3.72,0,0,1-1.24-2.61C135.77,376.76,136.26,376.1,136.26,375.7Z"/>
            <path class="cls-4" d="M130.82,381.23a6.35,6.35,0,0,0-1.42-2.39c-.27-.31-1.37.71-1.41,1.28s.57,2.57,1.63,2.13S130.9,382.56,130.82,381.23Z"/>
            <path class="cls-4" d="M121.66,387.29c-.32-.43-.13-1.46-.88-1.24s-1.29,2.48-2.44,2.17-1.81-.36-1.32-.71,2.21-1.46.75-1.11a14.78,14.78,0,0,0-2.52,1c-.49.13-1.46.89-.84,1.24s1.46.44,1.06.88-1.11.84-.31,1.06a3.56,3.56,0,0,1,1.72.89c.36.4.53-.18,1.11-.58a8.46,8.46,0,0,0,1.9-1.68,2.14,2.14,0,0,1,1.42-.84A.73.73,0,0,0,121.66,387.29Z"/>
            <path class="cls-4" d="M123.56,389c-.33-.63-1.72-.48-1.9-.13a1.32,1.32,0,0,0,1.19,1.46C123.69,390.3,123.92,389.68,123.56,389Z"/>
            <path class="cls-4" d="M110.56,368.71c-1.09.55-1.81-1.86-.53-1.81S111,368.49,110.56,368.71Z"/>
            <path class="cls-4" d="M110.87,378.49c.4-.36-.4-.4-.71-.8s-1.24-.31-1.15.22.09,1.68.71,1.55S110.47,378.84,110.87,378.49Z"/>
            <path class="cls-4" d="M119.89,392.33c-.42.2-.31.93-.57,1.46a2.11,2.11,0,0,0-.27,1.77c.27.57,1.59,2.47,2.08,2.3s-.09-1.24.31-1.64.93-.57.93-1.24,1-2.08.4-2.43A4.33,4.33,0,0,0,119.89,392.33Z"/>
            <path class="cls-4" d="M130.29,416c-.4,0-.58.36-.54.84a2,2,0,0,1-.3,1.37c-.31.49,0,1.11-.4,1.64a3.51,3.51,0,0,0-1,1.59c-.13.76.31,1.82.14,2.3a6.71,6.71,0,0,1-1,1.42c-.35.48-1.37.57-1.19,1s1.15.39,1,.7-1.5,1.06-1.32,2.17,0,1.55.75,1.68.57-.31,1-.53.58.22,1.2.44,1.9-.13,1.59-1a7.94,7.94,0,0,1-.53-1.69c0-.3.71-1.45.75-2s.13-2.43.22-2.74a6.69,6.69,0,0,0,.36-1,8.07,8.07,0,0,1,.26-2,2.4,2.4,0,0,0,.53-1.28,6.52,6.52,0,0,0-.7-2C130.9,416.52,130.82,416.08,130.29,416Z"/>
            <path class="cls-4" d="M125.86,432.66c-.39.23-1.72-.48-1.37-1s.53-.66,1.2-.48.57.49,1.06.79S126.17,432.49,125.86,432.66Z"/>
            <path class="cls-4" d="M122.68,433.55a.92.92,0,0,0-.22,1.28c.35.49,1.28,1,1.28.18S123.12,433.15,122.68,433.55Z"/>
            <path class="cls-4" d="M120.11,423.33c-.81-.36-1.46-1.81-2-2.39s-.75-.93-.36-1.06,1.07-.35.8-.71-1-.35-.71-.79.75-.53.36-.84-.49-.27-.8-1.38-.93-1.85-.8-2.38,1.2-2,.93-.84-.53,1.41,0,1.94.84,1.15,1.24.8.75-1.64,1-1.33a1.13,1.13,0,0,1,.09,1.51,3.29,3.29,0,0,0-.62,2.12c0,.66.22.93.53.71s1-.53.8.31-1.06,1.15-1,1.59a3.53,3.53,0,0,0,.93,1.9C121.09,423,120.51,423.51,120.11,423.33Z"/>
            <path class="cls-4" d="M129.8,437.93c-.11-.62-2.13.75-2.39,1s-.49,1.24.18,1S129.89,438.41,129.8,437.93Z"/>
            <path class="cls-4" d="M129,440.8c-.72.59-1.59.31-1.64.62s.71.53.71,1.06-.44,1.28.26,1.2a5.75,5.75,0,0,0,2.17-.89c.4-.31-.4-.22-.66-1S129.44,440.4,129,440.8Z"/>
            <path class="cls-4" d="M142.45,416.17a5.19,5.19,0,0,0-2.83-.23c-.49.05-.76-.66-1.29-.39s-.53.88-1.1.84-1.24-.27-1.64-.09-.31.26-.09.53.09.71-.13,1.15.18,1,.22,1.5-1.24.67-.53,1.9,1.15,1.16,1.37,2.35a11.8,11.8,0,0,0,.62,2.12c.22.71.53.75,1.2.62a3.07,3.07,0,0,1,2.43,1c.4.62,1.28,2,1.32,1s-.57-1.9-.13-2.56a7.12,7.12,0,0,0,1-2.52C143.11,422.23,143.2,416.65,142.45,416.17Z"/>
            <path class="cls-4" d="M146.21,409.22c1.53-.19,2.16-.88,1.28-.88a6.13,6.13,0,0,1-3.27-1.33,2.5,2.5,0,0,0-1.77-1c-1-.17-1.06-.75-1.77-1.77s-2.3-3.31-2.92-3.09-.58.66-.27,1.37.14,2.17.71,3,1.37.8,1.19,1.55-.92,1.42-.66,2.43.53,2.35,1.64,2.08a5.55,5.55,0,0,0,2.39-1.5C143.51,409.4,145.14,409.36,146.21,409.22Z"/>
            <path class="cls-4" d="M140.19,414c-.62,0-.13-1.24,0-1.11S141,414,140.19,414Z"/>
            <path class="cls-4" d="M136.92,414.13c-.63.29-1.37-1.28-.71-1.41s1.37.31,1.28.75S137.49,413.87,136.92,414.13Z"/>
            <path class="cls-4" d="M139.7,387.86c-.35-.31-1,0-1.28.31s-.7,2-.17,1.9a3.48,3.48,0,0,0,1.76-1.15c.36-.48.62-.93-.22-1.06"/>
            <path class="cls-4" d="M140.72,386.49c-.67.13-1.15-.58-1.1-1.19s.48-1.11.48-1.55-.62-.67-.22-1.24,1-1.2,1.15-.93a6.28,6.28,0,0,1,.22,2,15.17,15.17,0,0,0-.09,1.68C141.25,385.47,142.14,386.22,140.72,386.49Z"/>
            <path class="cls-4" d="M144.22,386.53c-.59,0-1.86,1.15-1.55,2.17s.48,1.59,1.5,1.55,1.37.79,2.39.84,2.12-.49,2.21-.93.58-1-.79-1.06-1.68.4-2.44-.75S145,386.49,144.22,386.53Z"/>
            <path class="cls-4" d="M141.47,450.22c-.21.06-.17.8-.26,1.55a4.87,4.87,0,0,1-1.55,2.3c-.44.31-.4,2.92.27,2.52s.88-1.73,1.32-1.11.62,1.33.93.89a4.13,4.13,0,0,0,.36-2.88C142.18,452.7,142.27,450,141.47,450.22Z"/>
            <path class="cls-4" d="M139.62,459.91a3.05,3.05,0,0,0,.75,2.52c.62.44,1.19.84.79.88s-1.54.71-1.06,1.06a2.52,2.52,0,0,0,2.39-.57c.18-.45.8-2.44-.26-3.23S140,459.15,139.62,459.91Z"/>
            <path class="cls-4" d="M148.37,451.63a1.19,1.19,0,0,0-.92,1.64c.39.62.7,1.11,1.06.58S149.39,451.72,148.37,451.63Z"/>
            <path class="cls-4" d="M113.43,457.21c-1.1-.5-2.34.79-2.3,2.12s.45,2.39,1.55,1.1S114.8,457.82,113.43,457.21Z"/>
            <path class="cls-4" d="M120.51,459.37c-.33-.3,1.15-1.59,1.68-2.16s.49-2.7,1.55-2.44,1.94.27,2.61,1.55-.09,2.26,1.06,3.36,1.77,1.86,1.81,3a2.58,2.58,0,0,0,.93,2.12c.36.14,0,.4-.17,1a21.37,21.37,0,0,1-1,3c-.49,1-.75.62-1.46-.53s.57-1.33.75-2-.8-1-.88-1.64,1.19-2.39.26-2.88-.84-.84-1.19-1.37-2.13-2.83-2.57-2.74-.88.58-1.81,1.37S121,459.86,120.51,459.37Z"/>
            <path class="cls-4" d="M126.84,476.53a5.14,5.14,0,0,0-1.42.66c-.22.23,1,1.82,1.37,1.33S127.32,476.4,126.84,476.53Z"/>
            <path class="cls-4" d="M115.56,475.91c-1.21.27-2.44-.66-1.91-1.1s.49-.58,1.42-.58.8.31,1.37,0,.53.66,0,1.1S116,475.82,115.56,475.91Z"/>
            <path class="cls-4" d="M111.44,478.52c-.45.13-.62,1.59-.17,2s-.22.66,0,1.28.09,1.33.62.84.22-1.64.71-1.59,1.5-.18.84-1.06S111.75,478.43,111.44,478.52Z"/>
            <path class="cls-4" d="M125,493.25c-.42.18.18.93-.13,1.28a.94.94,0,0,0-.09,1.15,2.07,2.07,0,0,1,.09,1.46c-.13.4-.44,2.21,0,1.81s.76-2.43.93-2.83,1.15-.75,1.2-1.19a1.83,1.83,0,0,0-.93-1.55C125.42,493.07,125.33,493.12,125,493.25Z"/>
            <path class="cls-4" d="M128.29,499.26c-.28-.51-1.76.93-2.16,1.11s-1.24-.09-1.82.71-2.12,3.45-2.38,4a8,8,0,0,0,.08,3.09c.14.49.93.67,1.15.27s2-3.36,3-3.72,2.43-2.52,2.83-3.05.48-1.1.17-1.28S128.74,500.06,128.29,499.26Z"/>
            <path class="cls-4" d="M117.46,509.61c-.52.24-1.11.8-.66,1.51s2.3,1.37,2.07.26S118,509.35,117.46,509.61Z"/>
            <path class="cls-4" d="M129.05,495.59c-.18,1.15,1.72,2.39,1.77,1.51S129,495,129,495.46"/>
            <path class="cls-4" d="M100.77,410.28c-.29,0-1.47.31-1.08,1.05s.91,1.36.68,1.64-1,.43-.7.85.59,1.11,1.1,1.11.65-.43.43-1.16a1.81,1.81,0,0,1,.39-1.76C102,411.44,101.76,410.14,100.77,410.28Z"/>
            <path class="cls-4" d="M93.86,414.22c-.48-.11-1.62-1.05-1.62-.48s1,1.7,1.42,1.7S94.37,414.33,93.86,414.22Z"/>
            <path class="cls-4" d="M90.57,414.53c-.28.23.11,1.22.94,1.76a.68.68,0,1,0,.73-1.14C91.42,414.59,91,414.16,90.57,414.53Z"/>
            <path class="cls-4" d="M103.69,399.85c-.79,0-1-1.41-.48-1.5s1.22,0,1,.65S104.26,399.83,103.69,399.85Z"/>
            <path class="cls-4" d="M116.89,407.33c-.59-.05-1.13.29-.7.85s.28,1.36.76.85S117.23,407.36,116.89,407.33Z"/>
            <path class="cls-4" d="M265.8-54.44c.92-1.07,1.58-1.22.9-2.27s-2.29-3.29-2.31-4.88.11-2.39-.68-1.71-4.08,2.83-5.67,3-4.77.32-5.29,1.26-2.23,2-2.88,3.08-3.52,4.55-4.45,4.56-1.17,1.87-2.37,1.88-2.23,1.49-4,1.24-2.26-.63-3.19-.49-1.33-.52-2.14-1.57.12-1.46-1.87-1.57-2.4-.76-3,.17A5.25,5.25,0,0,1,226-49.47c-1.59.55-3.15,2.56-4.09,1.64s-1.36-2.24-2.29-2.89-2.17-3.69-1.65-4.62a4.08,4.08,0,0,1,2.37-2.15c.92-.15.64-1.73-.56-2.25s-2.25.29-4.38-.35-3.73-1.55-3.75-3.14-1-3.43-.85-4.49,3-4.81,2.32-5.6a18.83,18.83,0,0,1-1.89-3.16c-1-1.71-2.81-2.09-3.2-1.16s-1,2-1.7,1.35a11.43,11.43,0,0,0-5-1.6,49.85,49.85,0,0,1-11.61-2.47c-4.54-1.41-8.37.55-10.41-.77s-2.77-4.68-.5-10,4.82-6.94,5.78-10.66-2.21-8.85-.5-10,3.51-4.89,4-8.22,1.26-.37,4.57.57-2.27-7.17-4.73-8.51-9.17-.3-13.76-.46-7.83-3.18-10.32-3.68-.36-1.68,1.41-4.55-1.94-4.66-1-6.71-4.52-2.24-3.14-5.95.5-2.49.15-4.59-1.88-6.33-3.94-7.23-1-8-.93-9.64,4.26-2.36,6.41-4.38-8.34-.28-11.65-1.22-6.63-1.48-9.16-.72-7.11.18-11.31.87-12.7,5.42-16.11,7.4-6.74,1.86-8.36.14,4-7,6.52-7.72.53-3.32-.14-8.36.13-3.75-.59-7.12-2-1.73-4.94-2.25-1-7.55-.86-11.72,3.93-5.3,8.11-5.16,2.14-1.6.55-4.15-1.49-5.48.67-7.5.22-6.67,3.24-9.5,4.5,2.66,6.21,1.46,7-8.11,7.53-12.69.58-5,3.88-3.63,3.65,3.05,6.27-.21,1.94-8.28,5-11.11,2.11-.76,3.74.55,3.78-.71,6.77-2.7-5.55-8.95-5.87-11.89,1.74-2,3.34.11,3.05-3.65,2.27-5.35-1.14-3.38,1.46-6.22.08-27.55.61-30.88-3.07-8-2.59-10.1-.18-7.11-.51-9.63,1.52-7.88.25-7.5-5.31-3.52-9.45-4.5-2.21,3.69-4.37,5.71S139-351.4,139-353.48s-3.49-8-3-10.54,1.47-6.63-2.66-8-4-4.73-5.64-6-6.23-1-7.81-3.6-2.33-5.51-4-4.73-2.51-.08-3.71-1.37-4.45,8.2-4.54,10.7-4.71,3.6-6.89,6.45,2.36,4.26,3.49,8.05-1,4.57-4.3,3.62-4.26,2.36-6.44,5.21-8.55,6-10.3,8.43,1.11,4.21,1,8.38,8.33,13.23,9.07,16.17-3.72-1.37-6.22-1.46-4.89-3.5-6.85-7.32-10.33-3.27-13.31-1.7-14.25,1.61-18.48,3.14-3.52,5.31-6.12,8.15-4.67,2.35-7.7,5.59-3,2-6.45,5.63-5.05,1.08-8.06,3.91-5.47,1.07-9.68,2.18S3.77-292,3.71-290.35s-.32,9.6.46,11.29a13.34,13.34,0,0,1,1.88,6.33c.29,3.77-4.23,1.53-5.56,4s1.47,5.9,1.42,7.56-11.67,11.73-14.64,13.3-7.4,8.94-7.49,11.44,4.83,5.59,6,7.72-4.17,12.38-6.34,14.82-7.48,11.44-11.4,16.32-9.94,22.64-10.44,25.12-7-3.57-11.15-3.71-5-1-5.33-3.1-5.84-.19-8.79.54-4.1-2.22-8.19-4.86-1.43,5.38-.65,7.07,1,8.39,2.14,10.93-2.06,11.63-2.54,13.7a34.84,34.84,0,0,0-1.53,8.3c-.13,3.75-.25,7.51-3.26,9.91s-1.6-2.14-4.52-2.24-3,2.41-3.07,4.49-2.71,6.18-3.22,9.08.26,4.61,1.83,7.58.22,5.86.14,8.36.61,6.7-.72,9.16S-93-94.8-95.47-96.14s-1.29,1.21-1.79,3.7-2.66,4.51-3.13,6.16-3.71-1.38-6.13-4-4.38-6.41-5.33-3.1c-.5,1.78-3,4-5.38,5.68,0,.27.11.55.16.82.69,4.2.69,29.26.13,33.42s-2.07-.49-2.78-4.27-3.22-3.45-6.63-1.48-1.64-.89-3.21-3.86-5.55,3.57-7.3,6,.53,9.2,1.65,13,1.76,10.08,2.53,11.77c.51,1.11.93,5.08,1.12,8.74.72-.79,1.41-1.83,2.13-1.81,1.39,0,3.64,7.92,5.51,10.21s4.45,8.5,5.79,9.94,2.33-3,2.68-5.2,1.5-3.29,3.18-3.52,1.74,6.19,3.08,7.9-4.53,2.35-6.52,3.4.48,2.25,2.36,4.54,3.92-.71,5.37-2.61,2.89-3,3-7.69,2.44-6.32,3.87-7.39.46,2.8-1.85,5.23.78,1.69,2.49.64-3.27,6.29-4.75,8.75,1.9,1.45,3.85,1.52-2.62,3.25-4,4.59.22,1.68,1.26,3.94,1.46,6.18,3.33,8.75.11-3.34.49-6.39,2.55-1.31,4.17.14,2.82-1,5-.67,2.37,4,3.68,6.53,1,3.93,2.58,6.21.71-4.71,1.33-6.64,2-1.05,4.44.43a4.28,4.28,0,0,0,4.45.15s-3.74,3.77-4.64,5.69.52,1.13,3,2,1.9,1.46,4,6,5.92,6.05,8.65,7.81-1.06,6.64-2.22,8-1.54,4.4-.74,5.54,1.93.62,3.6.68,1.31-6.08,2.17-6.89-1.07,7.2-.88,9.71.75,2.54.67,5-1.91,7.17.26,8.92,3.6.67,4.93,2.39-1.19,2.18.43,3.91,1.82,3.68,1.73,6.46,2.84,6.78,4.7,9.34,2.71,2.32.17,3.35-3.68,1.83-.39,3.33.85-.53,4.3,4.59,2,7.31-.29,8.62.19,2.79.66,5.32.17,3.34,2.59,5.65,1.18,6.44,1.92,9.25-2.24.48-2.07,3.83,1.74,6.18-.58,8.89A5.83,5.83,0,0,0-44,151.26c.5,1.68-3.64.43-2.29,1.87s.22,1.68-1.5,3.29-.41,3.88-.52,7.22-2.14,5.5-4.47,8.76-.56,7.3-1.9,9.3-5.52,8.86-5.63,12-3.47,12.25-2.52,14.57,3.51,1.78,5-.09,2.1-1.84,4.9-1.74,2-3.76,3-4.87a60.27,60.27,0,0,1,8.25-6.87c2.48-1.57,2.88-2.19,2.85-1.3A77.84,77.84,0,0,1-40,204.11c-.74,3-1.23,3.81-2.53,5s-3.23,1.79-1.4,3.75,1.17,2.89,3,4.53,2.3-2.77,4-4.61,5.56-5.51,5.56-5.51,1.15,3.52-1.1,4.71.17,4.12.44,5.71-1,2.81,1.43,4.48,4.16-1.45,5.8-3,2.55-10,2.94-12.25,4.56-4,4.56-4-.77,4.09-2.06,4.68-.41,2.83.16,4.75-1.36,2.8-1.43,5,4,3.93,4,3.93l3.78-9.05a50.2,50.2,0,0,1-.48,5c-.41,2.84,5.28-6.47,5.28-6.47A46.11,46.11,0,0,1-11.9,220c-2.35,4,1.73,5.12,5.22,4.92s11.4-9.74,13-10.95,1.41-4.39,2.44-6.57.45-4.1,2.91-2.11,2.26-1.2,3.9-3,2.56-.86,4.45-.48,5.15-2.68,7.41-3.87a26,26,0,0,1,3.52-1.4,3.74,3.74,0,0,0,1.48.08c1.55-.28,3.52-2.11,4.43-2.6s3.94-1,4.64-2-.35-1.41-.84-2-3.94-5.2-4.22-6.33,1-1.12.49-2.53-1.4-1.47-1.75-3.23a3,3,0,0,1,.84-2.88,7.87,7.87,0,0,1,2.81-2c1-.35.49.85-.35,1.55s-1.9,1.12-2.32,1.62-.28,1.05.21,1.89a17.07,17.07,0,0,0,1.69,2.74c.84,1.06.49.78.49,2a5,5,0,0,0,.91,2.6A3.19,3.19,0,0,0,41,186c.42,0,2.1,1.48,2.81,1.62a19.63,19.63,0,0,0,3.86.56,30.87,30.87,0,0,0,5.69-.84c1-.42,8.72-8.43,9.42-9s.21-1.4.35-2.17,2.32-3.31,2.32-4.43-1.69-2-1.76-2.53.77-.14,1.2-.28-.35-.91-.35-1.27.91-.07,1.33.5,1,.35,1.12-.5,1.41-4.56,1.69-5.62-2.81-5.48-3-6.39,2.67-3.94,3.3-4.64-.14-.42-.77-1.54-1.13-1.34-2.53-2.25-.77-1.41-.77-1.41a11.73,11.73,0,0,1,1.4.28c.42.14.49-2.24,1-2.39s.7,1.62.84,2.46,3.51,2.81,4.07,3.38a3.58,3.58,0,0,1,1.06,2c0,.5,1.26.5,1.75.78s1.34,2,1.9,3.23.92.56.49,1.12-.14,1.27.36,2.39.28,1.62,1.12,1.76.35-1.2,1.19-1.83,1.55-.91,2.18-.56,1.34,1,2.32,1.62.14,1-1,.77-3.17-.91-3.38.49,1.69,2.74,1.83,3.23a2.47,2.47,0,0,1-.35,2.32c-.7.91-.42,1.55-.84,2.32s.77.21,1.54.77-.42.71-.7,1.69.56,1.19,1.83-.28.77.28.56.7a1.37,1.37,0,0,0,.21,1.9c.84.91-.35,2.25.21,2.95s.84,2.11,2,3.51,1.68.14,2.18.42-.5,1-.43,2,.85,3,.85,5,.77,1.76,1.26,1.19,1.82-1,3.59-1.05,2.24-.49,3.86-.21,1.69.07,2.39.7,1.33-.35,2.11-.84a7,7,0,0,1,2.74-1.55c1.47-.35,1.61.57,1.33,1s-2.25.84-3,1.75-2.11,2.6-2.11,3.66.49,1.12.49,1.68-.14.92-.28,2.32a4.93,4.93,0,0,0,.92,3,2.56,2.56,0,0,1-.28,2.39c-.57,1-.92,4.78-.92,5.69s-1.47,1.48-2.46,2.39.28,2,.42,2.81,4.71,4.57,5.13,5.13a8.7,8.7,0,0,1,.92,3c.07.71.7,2.88.63,3.45a16.51,16.51,0,0,0-.28,2c0,.64.7,2.6.84,3.52s0,3.09.49,4a4.4,4.4,0,0,1,.78,2.74c-.14,1-1.06,1.83-.57,2.74a19.73,19.73,0,0,0,1.2,2.18c.42.56,0,.77-.42,1.48s-1,.84-1.76,1.68.07,1.06.07,1.9a13,13,0,0,1-.49,2.11c-.14.91,2.74,3,3.58,2.81s.21.77,0,1.26.14,1.48.21,2.46-.56,2.46-.35,3.45-.77,1.68-.84,2.24,1.12,1.27,1.26,2.11-1,1.83-1.19,3.16.84,3.24,1,3.8,1.13,3.86,1.34,4.71,1.4.63,2.11.21-.07-2.53.14-3.1,1.12,1.13,2,1.76.36-1.4.43-2,.7.85,1.12,1.48.42,1.4.7,1.62.14.91,0,1.19,1.41,2.25,2,2.81-.42.42-1.19.42-2.46-2.67-3.17-3.58-1,.56-2.45,1.26.14,1.9.49,2.67,1.68.43,1.82,1.06-.84,1.68-.28,2.81,1.9,4.28,2.18,4.85,1.41-1,1.41-.5-1.13,2.18-1.27,3.45,2.25,6.39,3.09,7.31,2.6,2.1,3.1,2.6.07,2.45-.36,3.3-.7,2-1.82,4.21.42,2.67.7,3.94a3.6,3.6,0,0,0,1,2c.64.84-.14,1.05-.35,2.24s.7,2.74.56,3.1-1.19-.29-1.4.7.7,1.69,1.26,2.53,1,1.9,1.62,1.75.7.64.77,1.34a2,2,0,0,1-.77,1.76,2.64,2.64,0,0,0-.77,1.89,15.93,15.93,0,0,0,.07,1.76c.07.7.42.14.84-.07s.63.63,1.26.7-.63-1.61-.7-2.32a3.19,3.19,0,0,1,1.06-2.24c.35-.08,1.12.84,1.12.49s-.91-1.13-.63-2.67-1.06-3.09-1.13-4.08,1.34-4.92,1.55-5.48-.7-.91-1-2.39,1.33-2.53,1.12-3.3-.91-2.39-.7-2.88.91.91,1.61,2a8.75,8.75,0,0,1,.85,4.07,10.59,10.59,0,0,0,.7,3,10.06,10.06,0,0,1-.42,4.64c-.49,1.41-.07,1.9,0,2.81s.91-.07,1.47-.35.85.56,1.13.91-.14.78-.35,1.27,1,1.61,1.75,2.74.71,1.26,1.48,2.46,3.16,3.65,3.37,4.28-1.05,1.06-.35,1.76a6.22,6.22,0,0,0,2.11,1.55c.35,0-.07.77-.35,1.61s.35,2,.7,2.81.7,2.67.91,3.16,2.53,2,3.16,2.53a2.44,2.44,0,0,1,.78,2.25,3.8,3.8,0,0,1-.71,1.62c-.21.35.64,1.33.64,2s-.36,1.68-.36,2.67,1.41,1.89,1.76,2.95-.91,1.05-1,1.47,1.19,1.83,1.61,2.39a4.86,4.86,0,0,1,.85,2.67c.14,1.41.28,1.06.28,1.55s-1.48.35-2,.49.56,1.19,1.27,1.05a6.35,6.35,0,0,1,2.31,0c1,.14-1.12.42-1.68.71s-.56.91.21,1,1.68-.07,1.83.35-1.48,1.9-1.62,2.39.21.7.56,1.26-.35.85-.63,1.27a11.45,11.45,0,0,0-1.62,2.81c-.21.91.85,1.05,2.11,1.12s2.32,1,1.55,1.48-2.88.35-4.22.7-.7,1.83-.21,2.53a9.68,9.68,0,0,0,2.67,2.32,4,4,0,0,1,1.76,2c.07.42-1,1.26-1.48,1.68s-3.72.64-4.36.64-1.82,1.4-2.17,1.89.21,1.06,1.4,2a2,2,0,0,0,2.81.14c.85-.56,1.2-1.47,2.81-1.47s1.55.84,1.48,1.75-.92,1.48-1.83,1.9a4.84,4.84,0,0,0-2,1.76c-.49.7.57.42.71.77s-.64-.14-.85.77.92,1.69,1.69,1.69,1.83-.35,2.11.21-.56.21-.64.63.78.85,1.06,1.62a5.52,5.52,0,0,1,.14,2.39c-.07.77-.91.28-1.48.7s-1.05,1.27-1.82,1.9-3.45.49-4,.49-.7.21-.49.56,2.67.42,3.93,0,1.2-.56,1.62-.63,1.55.28,1.62.84-.64.49-1.27.42-.63.35-1.47,1.13-1.76,1-1.76,1.47.91.63.77,1.06-1.4,1.05-1.61,1.54.77,1.34,1.54,2.32a4.34,4.34,0,0,0,2.67,1.48c.49,0,1.2-1.55,1.2-2.25s.63-1.27,1.68-1.34.71-.56.71-1.05.42-.84,1.19-1,1-1.48,1.34-1.83,0,1.33,0,2-1.76,1.12-1.83,1.75.77.63,2.11,1.06a9.15,9.15,0,0,1,2.95,1.26c.7.56.7,1.06.14,1.27s-1.62-.92-2.74-.85-.49,1.41-1,1.69-1.19-.63-2.24-.63-1,1.19-1.27,2-.49.92-.56,1.27.56.84.7,1.62-.49.91-.56,2,.7.78,1.26,1.13.57,1.61.57,2.25-.21.91-.85.91-2.25,1.83-2.39,2.18.36.84.92,1.19,0,1.06,0,1.69,2.11,2.88,2.11,3.51a2.47,2.47,0,0,1-.78,1.69c-.56.7-.14,1.83-.49,2.95a2.49,2.49,0,0,1-1.54,1.68c-.64.36-1.48.08-2.11.29s.14.56.56,1.33,1.33.42,1.69.91a4.79,4.79,0,0,1,.63,2.46c-.07.71-1.27.43-1.55.78s.49.63,1.06,1.19.49.77.63,1.83-.56,1.9-1.06,1.9-.84.35-1.19.42a3.83,3.83,0,0,1-1.41-.21c-.56-.14-.42,0-.84.77s-1.83.35-2.46.77.21.49,1.34.63a.73.73,0,0,1,.28,1.41c-.56.14-.77.35-.77,1.26s-.57,1.2-.78,1.69a8.57,8.57,0,0,1-1,2.32c-.42.35-1.13-.77-2-1s.49.7,1.2,2-1.13.64-2-.21-1.41-1.26-1.9-.42.14,3.16.14,4.36,1.13,2.39,1.55,3.3-.28,2-.71,4,1.06,2.39,1.27,3.17a27.9,27.9,0,0,1,.84,3.51c0,.56-.49.84-.7,1.62s0,1,.07,1.68-1.55,2.46-1.55,2.95.78,1.48,1,2a20.61,20.61,0,0,1,.28,3.23,17,17,0,0,0,.63,3.45c.28,1.05,1.6,3,2.51,3.25s1.36-2.11,1.43-2.46,0-4.59,1.12-5.78c.27-.29.47-.39.62-.37a36.45,36.45,0,0,0,1.53-4c.39-1.33,2-3.53,2.2-4.63s1.25-5.1,2.2-5.89,3.14-2.9,3.06-3.84-1.26-2.91-1.57-3.61-1.49-1.65-1.1-2.28,1.49-2.75,2.2-3.77a7.26,7.26,0,0,1,3-2.43c1.49-.78,1.33-1.65,2.59-2s1.57.39,2.51,0,1.81-.55,1.81-1.49.47-1.41-.16-2-1.81-.87-1.1-1.73.71-2.59,1.65-2,.86,2,1.72,1.18.71-3.38,2.44-4.08,2.35-.24,3-.95.23-1.49,1.33-2,1.34-.31,1.57-.86.24-1.73.39-2.12,1.1-.55,1.1-1.49-.23-1.57.24-2,2-1.34,2.51-2.51-.23-1.57.63-2.36,2-1.25,2.75-2.82,0-2.51.78-3.14a6.36,6.36,0,0,0,1.49-1.81,17.55,17.55,0,0,0,1.1-1.72,6.53,6.53,0,0,0-.08-1.65c-.08-1,.55-3.38,1.41-3.53s1.42.62,2.44.15,1.41-2.12,2.51-3.14a7.76,7.76,0,0,0,2-3.21c.47-1.18,1.81-1.26.94-2.28s-2.67-1.57-3.29-2.51a3.84,3.84,0,0,1,0-3.69,2.64,2.64,0,0,0,.15-2.51c-.23-.55-2.27-1.73-2.27-2.28s.78-2.12,1-3.21-.32-2.05-.79-2.05-1.57,1.42-2.74,1.1-1.42-.94-.79-1.64,1.26-.79.79-1.73-1-1.26-1-2,1.1-.63.24-1.73-1.41-1.17-1.57-2a9.62,9.62,0,0,1,.08-3.37c.23-1-.16-1.26-.87-2.2s-.62-1.73.08-3.06a3.85,3.85,0,0,0,.16-3.69c-.55-1.33-2.43-2.12-3.45-3s-1.81-.63-2.44-1.81-.39-2-1.88-2.27-2.43-.63-1.88-1.42a2.46,2.46,0,0,0-.4-3.14c-1-1.09-1.33-1-1.17-2.58s-.87-1.89-.87-2.67,1.18-.79,1-1.73-1-1.49-2-2.59-1.89-1.65-1.57-2.59,1.64-1.88,1.09-3.45-1.25-1.81-.31-2.43,2.67.15,3.14-.55a6.53,6.53,0,0,0,.31-3.46c-.15-.7-.78-2-.39-2.9a9.74,9.74,0,0,0,.63-3.06,27,27,0,0,0-1.1-5.81c-.39-1.26-.94-2-.78-2.43a6.4,6.4,0,0,0,.15-2.28,9,9,0,0,1,.08-2.9c.24-.94.71-1.34.24-2.12s-2.44-.71-2.44-2.28a6.7,6.7,0,0,0-.62-3.06c-.32-.7.78-1.65.54-2s-2.27-1.49-2.9-2-1.88-.94-1.88-1.81-1.18-2.51-1.81-3.37-.08-2.2-.7-2.67-2.12-.71-2.59-1.1-1.65-1.49-2.12-2-4.63-3.61-5.1-4.24-.48-1.8-1.1-2-1.1.39-1.34.39-1.65-1.72-2.67-2-1.64-.15-1.88-1-.31-2-1-2.59A12.1,12.1,0,0,1,144,289.7a13.83,13.83,0,0,1-2-3.45c-.24-1-.4-1.81-.95-1.81s-1-.47-.94-1.33a5.81,5.81,0,0,0-1.57-3.38c-.7-.63-1.33-.63-2-1.57a7.4,7.4,0,0,0-1.88-2,3.31,3.31,0,0,1-1.57-2c-.32-1.1-.39-1.65-.79-2s-1.41-.55-1.41-1.1.39-1.1.24-1.49-1.42-.55-1.1-1.34.78-1.57.31-2.43-1.18-1.81-1.49-2.43-.86-1.42-.39-1.81,1.33-.7,1.1-1.49-2.44-2.2-2.36-3.06,2.12-2.35,1.89-3.14-2-2.12-1.18-2.59,1.1-.15,1.88,0,2.36-2,2.75-2.59,1.41-1.33,1.88-1.18,2.28,1.5,2.75,1.65,1.18-.15,1.18-1.17-.47-1.26.08-2.05.15-1.33,1-1.17,2.12-1.57,2.9-1.1,2.51,2.82,2.9,2.43.47-1.72.71-2.35,1.1-2.59.78-3.85-1.49-2.67-1.49-3.45-.15-2.12-.07-3.06.86-1.57.7-2.83-.86-2.2-.78-3a38.7,38.7,0,0,1,1.41-4.16,11.74,11.74,0,0,0,.63-2.51c.08-.71-1.57-2.28-1.1-2.9s1.57-1.65,1.65-2.2a5.22,5.22,0,0,0-1-2.51c-.48-.63-1.42-.4-1.42-1.34a1,1,0,0,1,1.34-1c.63.16,1.88,1.81,2.51,1.1s2-1.33,1.88-2-1.33-1-.47-1.49,2.36-.94,2.83-.63,2,.47,2.43.86,1.41,1.1,1.65.71,2.2-2.43,2-3.06-.39-2,0-2.28,2.28-.94,2.51-1.88-.63-3.3-.55-3.77,1.65-2,1.18-2.59-2.12-1.1-2.36-1.72-.07-2.83-.7-2.59-1.65.07-1.65,1.49.63,1.72-.55,2.9a5.72,5.72,0,0,1-2.28,1.73,2.68,2.68,0,0,0-1.8,2c-.39,1.18-.86,1.73-1.41,1.33s-.95-2.88-1.32-4.21-1.57-1.82-1.33-2.54,1.33-1.45.85-2.06-1.09-1.09-1.7-1.94-1.21-1.45-1.21-2.18v-2.29a4,4,0,0,0-1.81-2.18c-.49-.12-2.06-.13-2.06-1.34s-.12-1.81-.6-2.17-1.94-.37-1.58-1.34a4.67,4.67,0,0,1,1.82-1.93c.6-.49,1.81-1.21,1.81-1.7s-1-1-1-1a2.79,2.79,0,0,1,.25-1.57c.36-.48-.37-1.57-.85-2.06s0-2.05-.36-2.54-1.09-1.33-1.58-1.94-1-1.69-2.06-2.17-.6-.61-2.3-.61-1.45.36-2.17-.24a25.16,25.16,0,0,1-2.18-2.42,12.86,12.86,0,0,0,0-2.18c-.12-.48-2.06-2.06-2.67-2.91a9.12,9.12,0,0,0-1.93-1.81,9.4,9.4,0,0,1-2.3-2.54,2.49,2.49,0,0,1-.36-2.55c.36-1-1-1.08-2.06-2.17a3.36,3.36,0,0,1-1.21-2.06c-.12-.49-1.7-1.45-1.7-2.18s0-1.33-.72-1.33-3-1.57-3.88-2.79a17.84,17.84,0,0,0-2.78-2.66,19.76,19.76,0,0,1-2.42-2.3c-.49-.72-1.33-1.21-1.33-1.81s.6-.85-.12-1.94-1.46-1.82-1.82-2.3-1.21-.85-1.57-1.21a2.49,2.49,0,0,1-.61-2.18,7.17,7.17,0,0,1,2.06-3.15c1.33-1.33,2.06-1.21,1.45-2.3s-.6-2-1.57-2.9-2.18-.48-1.58-1.09,1-1,.61-1.45-1.82.24-1.09-.61,2.3-1.09,1.33-1.81a18.05,18.05,0,0,1-3.39-3.27c-.36-.73-.6-1,0-1.94s1.58-1.57.61-2.18-3.15-2.18-3.63-1.21-.73,4.24-1.82,3.39-3.63-3.27-3.39-4.11,1.21-1.58.49-2.67-1.7-3.39-2.55-4.84S90,91.7,90,90.73s.73-1.82.73-1.33a3.78,3.78,0,0,0,2.06,2c.72.12,1.09,2.67,2.06,2.67s1.81-.61,2.54-.49,1,.61,1.57,0a29.27,29.27,0,0,1,3.27-1.93c.72-.49,1.94-1.58,2.54-1.46s1.57,1.46,2.54.85a4.59,4.59,0,0,1,2.18-1c.61,0,.36-2.18.36-3.51s.25-2.06-.24-3A4.38,4.38,0,0,1,109,81c.12-.72.6-.84-.24-1.81a3.65,3.65,0,0,1-1-2.3,1.9,1.9,0,0,0-.61-1.45c-.6-.73-3.27-2.91-2.06-3.27s2.67-.36,2.79-1.09-.12-2.42.48-3.27,3-2.06,3.63-2.78a2.23,2.23,0,0,0,.61-1.7c0-.48.36-4-.12-4.84s-2.3-1.94-1.82-2.54,2.91-.36,2.42-1.09-1.93-1.45-2.06-2.54,0-1.33-.36-1.82.73-1.69,1.58-2.3,2.54-1.81,2.54-2.78-1.33-1.94-.61-2.91,2.3-.12,3-1a14.74,14.74,0,0,1,2.42-1.7c.36-.36.24-1.21,1.21-1.21s1.33-1.21,1.33-1.69-.85-1.58-.6-2.06.72-3.15,1.09-3.88,1.93-.24,2.3.37,1.21-.36,2.17.85,1.94,2.17,2.79,2.29,1.81,0,1.81.85.37,2.18,2.06,1.94,2.42-.85,4.12-.85a44.81,44.81,0,0,0,4.48-.12c.72-.12,1.69-.85,2.17-.36s1,1.81,1.46,1.57,1.93-2.18,2.54-2.3,2.9-1.57,5-1.57,2.91-.12,3.27-.61,1.33-2.06,2.06-1.57S161.07,34,162,34.08s2.18-1.09,3.51-1.45,2.06-1.82,2.43-2.54.72-1.7.36-2.18-1-1.21-.85-1.82.73-1.33.73-1.69.48-3.76.6-4.36a4.09,4.09,0,0,1,1.7-2.06c1-.72,2.78-1.09,3.87-1.69a4.44,4.44,0,0,1,4.24.36c1.21.85,1.93,2.42,3.14,2.18s1.09-.85,3.15-1.21,2.54-.36,3.75-1.45,2.3-1.58,2.67-2.42S190.48,11.93,190,11s.61-3.15-.36-4.36-3.39-3.26-2.54-3.26,3.15,1.57,4.72,2.05,2.78,1.34,3.39,1.34a2.89,2.89,0,0,1,1.69.36c.61.36,1.46-.12,2.79-.49a5.79,5.79,0,0,1,2.42-.12,2.82,2.82,0,0,0,.84-.13h0l.25-.1h0l.21-.12.05,0,.18-.15.06-.05a2.43,2.43,0,0,0,.2-.25c.49-.73.61-4.12,3.15-4.48s2.3-1,3.75-.37,2.18,3.39,3.64,3.88c.5.17.91.28,1.24.42l.22.13a1,1,0,0,1,.2.13.91.91,0,0,1,.2.24s.08.08.1.13a10.28,10.28,0,0,0,1.78-4.32c.23-2.78,2-10.49,3-12a20.32,20.32,0,0,1,3.4-4c1.18-.94,4.62-1.78,4.75-2.44s1.05-.81,2.37-.83,4.53,1.67,5.84.6,6.33-3.52,4.73-3.9-5.15,1.38-5.43.72-.56-2.77.22-3.84,1.32-.95.91-2-1.21-1.45.24-1.73,3.7-1.37,4.35-3,2.67-9.05,3.46-10,1.59.24,3.18,0a7.29,7.29,0,0,0,4.88-2.31c2.1-2,5.54-2.45,6.85-3.66s5.91-4.84,5.37-5.63S264.89-53.37,265.8-54.44Z"/>
          </g>
          <g>
            <path class="cls-4" d="M481.72,48c-.57,0-1,1.52,0,1.49A.75.75,0,0,0,481.72,48Z"/>
            <path class="cls-4" d="M550.1,153.18c-1.14-.16-.89,1.4,0,1.38S550.79,153.28,550.1,153.18Z"/>
            <path class="cls-4" d="M578,191.23c.87-.08-5.18-5.53-6.25-6.65s-5.86-4.82-5.61-4.14-.1.7,1.77,2.15,2.6,2.82,3.66,3.83,2.82,3.05,3.88,3.83S576.37,191.38,578,191.23Z"/>
            <path class="cls-4" d="M594.53,200.76c-.35-.51-1.6.61-1,1.51s2,2.61,2.22,1.8.1-.93,1.36-1,1.46-1.87-.16-2.06S595,201.44,594.53,200.76Z"/>
            <path class="cls-4" d="M604.57,207.21c-1,0,2.25,3.17,2.35,2.25S605.6,207.18,604.57,207.21Z"/>
            <path class="cls-4" d="M634.77,235.53c0,.69,2.92,2,2.78.86S634.76,235.19,634.77,235.53Z"/>
            <path class="cls-4" d="M647,324.43c-.9-.86-.61-1.36-1-1.81s-1.29-1.13-1-1.82.3-1.85.89-1.29,0,1.84.86,2.74,2,2.26,1.32,2.39S647.33,324.77,647,324.43Z"/>
            <path class="cls-4" d="M657.48,367.35c-1-.64-2.44-1.1-2.81-2.24s-1.23-3.54-1.34-3.19-.58-.33-.55,1.16.74,2.29.4,2.41-.91.71-.78,1.05a1.4,1.4,0,0,0,1.17.9c.57,0,1.61.19,1.62.65s.53,2.87,1.08,2.05.2-1.73.77-1.74S658.65,368.13,657.48,367.35Z"/>
            <path class="cls-4" d="M648.76,389.4c-.64.28,1.07,1.36,1.87,1.34s2-1.31,1.58-1.53A6,6,0,0,0,648.76,389.4Z"/>
            <path class="cls-4" d="M637.22,470.89c-1.26.16-1.45,1.88.27,1.95S638.37,470.75,637.22,470.89Z"/>
            <path class="cls-4" d="M552.51,480.25c-.71.29-.5-2.06.19-1.73A.93.93,0,0,1,552.51,480.25Z"/>
            <path class="cls-4" d="M549.6,478.59c-1.11.37-1,.14-1.47,1.41s-.48,3.92.77,3.44,2.39-1.09,2.37-2.36S551.08,478.1,549.6,478.59Z"/>
            <path class="cls-4" d="M539.2,481.93c-.32-.75-1.08-1.94-.52-2.87s.28-3,1-3.13,1.71-.84,1.74.54a6.2,6.2,0,0,1-.28,2.65c-.33,1,1.5.43,1.29,1.24S539.69,483.07,539.2,481.93Z"/>
            <path class="cls-4" d="M538.37,470.32c-.52.28-.55.94-.54,1.63s-.06,2.64.75,2.74,1-.14,1.71-.84.78-1.06.07-1.85S539.05,470,538.37,470.32Z"/>
            <path class="cls-4" d="M535.28,471c-1,.13-1.25.83-1.23,1.63s-.77,1.52-.88,1.87a19.1,19.1,0,0,0,.19,3.56,4.79,4.79,0,0,0,2.48,2.59c1.16.43,1.83-.5,1.23-1.41s-1.18-1.47-.72-1.48,1.86.88,1.27.09-2.34-1.56-1.19-1.59,2.07.07,1.36-1-1.86-.88-1.19-1.81S536.31,470.83,535.28,471Z"/>
            <path class="cls-4" d="M509.29,487.31c-.8,0-2.54-.64-2.53.17s1.51.42.94.78-.65,1.63-.08,1.38a9.38,9.38,0,0,1,2.28-.74c.92-.13,3.34,0,3.81.72s1.94,4.22,3.24,5.69,3.66,4.29,4.35,4.39a5,5,0,0,1,2.44,1.09c1,.79,2.69,1.67,3.49,1.54a1.28,1.28,0,0,0,1-2c-.6-1.14-.85-1.82,0-1.84s.93.32,1.61,0,1.12-1.29,1.6-.38,1.85.19,2.52-.74,1.66-2.92,1.06-3.82-2.92-2-4.31-2.67a21.62,21.62,0,0,0-4.17-1.29,51.84,51.84,0,0,1-6-1.82c-1.51-.66-2.68-1.78-3.83-1.76s-3.23-.27-4,.09A8.83,8.83,0,0,1,509.29,487.31Z"/>
            <path class="cls-4" d="M500.23,488.66c-.36,0,2.9,1.08,3.72,1.87s2.95,3.16,4,4.05,2.25,2.95,3.07,3.62,2.11,1.68,3,2.46,2.83,2.7,3.88,3.37,1.84.3,2.9,1.08,3.3,3.5,4.11,4.06,1.3,1.46,2.32.63,2-1.77,2.48-2.12,1.58-1.3.53-2.08-1.38-.09-2.91-1.44-1.62-.77-3.37-1.88-3.37-1.3-4.08-2.09-1.88-1.92-2.35-2.37-1.91-3.06-2.62-4.08a11,11,0,0,0-2.25-2.71c-.82-.56-2.23-2-2.91-1.55s-.31,1.73-1.82,1.19a16.09,16.09,0,0,1-2.55-1.21A20.83,20.83,0,0,0,500.23,488.66Z"/>
            <path class="cls-4" d="M511.34,522.58c.52-1.1-1.06-1-2.35-2a42.28,42.28,0,0,1-3.17-2.81c-.82-.79-3.17-3.15-3.17-3.15a2.14,2.14,0,0,0,.74,2.4,18.64,18.64,0,0,1,3.18,3.49,6.42,6.42,0,0,0,2.48,2.71C510.45,524.1,510.24,524.91,511.34,522.58Z"/>
            <path class="cls-4" d="M530.15,561.29c-.74.35-.68.82-2.28,1.31s-3.41,1.92-2.24,2.59,1.3,1.46,2,.53,1-.37,2-1.43S531.17,560.81,530.15,561.29Z"/>
            <path class="cls-4" d="M433.54,511.54c-.83-1-2.84,1.33-1.58,1.3S434.13,512.21,433.54,511.54Z"/>
            <path class="cls-4" d="M569-60.79c-1.29-.56-.54-2.05-.74-2.34s-3.36-.9-3.76-1.09-1.66.43-3.21,1.45a7.05,7.05,0,0,1-4.58,1.57,6,6,0,0,0-3.13.56c-.88.31-1.94.93-2.56-.53s-.43-1.47-2.1-1.63-2.2,2.9-3.19,2.24-2-3.5-2.76-4.75-.71-1.07-1.68-.65-1.75,1.11-3,.46-2.89-2.2-4.89-3.43-3-.53-3.75-1-.74-2.24.32-3.25.35-2.17-.56-3.32-2.92,1.34-3.81,1.26-1.21-1.45-2.32-2.7-2.54.55-3.72.38-1.78-.75-3.08-1.6S514.51-80.5,515-81s-1.32-1.83-.85-2.83-.63-1.65-1.35-3.4.16-1.48.82-2.58-1.14-2.92-1.27-4-2.66-.73-4-1.29-1.25-3.31-1.28-4.39.47-1.19,1.22-2.58,1.06-5.63,2-6.43.82,1.35,2.4,1.91,1.81-2.4,2-3.88.85-1.59,1.32-2.19.44-2.36,1.21-3.07,1.73-1.8.84-1.88-3.29-2.19-4.68-3.14S512-121,511.06-121s-.6-.38-1.4-.85a43.9,43.9,0,0,0-4.06-1.68c-.7-.28-1.45,1-2.52,1.82s-2.55,0-4.1.88-3.53.47-5.21-.18-.62-1.36-1.93-3.1-5.23-1.06-6.12-1a7.82,7.82,0,0,0-3.13.46,31.36,31.36,0,0,1-3,1c-.39.11-2.63,1.24-3.62.77s-3.21-3.27-4.71-4.12-3.37-1.6-4.28-2.56-1.07.22-2.63.94-2.08-1-2.31-2.69,0-1.77-.95-2.83-3.7-3.16-4.13-4.72-1.69-.85-3-1.31-1.61-2-1.85-3.59-.78-.08-2.73.65-.73,2.76-1.57,4.74-1,.22-1.28-.26-.9-.67-1.76,0-1.56.82-4.29,1.47-4.28,2.06-5.73,3-1.18-.07-2.26.05-.75,1.79-.93,2.38-.76.9-2.13,1.52.19,4,.62,5.49.84,2.43.17,3.33-2,.73-4.06,3-2.21,2-3.29,2-3.25-.52-5.51-.47-2.22,2.11-3.28,2.92-3.16,3.6-3.93,4.31-1.87-.06-2.87-.92-2.58-1.42-3.49-2.48-.36-2.84-.18-3.82-1.48,0-2.15.54-3.33.56-4.2,1.07-2.66,4.09-3.43,4.69-.23,3.15-.6,4.24-.45,3.5-1.24,4.32-1,1.06-1.7,1.3-4.9-3-5.73-4.24-3.18-3.15-4.13-4.4-3.32-4.41-4.48-5-3.38,3.3-4.05,4.23,1.06,1.13,1.33,2.73-1.33,2.33-1.89,2.92-1.27-.2-1.75-.88-3.29-3.15-3.32-4.41.53-2.43-.76-3.44-2.68-1.32-3.36-.73-1.88,3.38-2.42,4.66-4,3.54-4.86,4.25-.07,2-.16,2.88-2.15,2-3.86,2.5-.65,2-1.09,2.67-1.26.14-2.44-1-2.08-.53-2.91-1.66-2.63-4.09-2.64-4.66-2.1-1.45-3.49-1.65-1.29-1.24-2.93-2.47-3.45-.15-4.15-.48-2.1-1.34-2.78-.86-1.5-.08-2-.76-.86-2.28-2.35-2.25-1.36,1.29-1.8,2.11a6,6,0,0,1-2.24,2.7c-1.36.83,0,.69.85,1.82s-.91.59-2.49,2.12S315.86-100,314.5-99s-.62,3-1.65,3.15a15.17,15.17,0,0,1-2.31-.07c-.8,0-1.25.61-1.11,1.64a18.65,18.65,0,0,0,1.6,4.8c.47.56,1.4.65,2,1.45s.72,1.48,2.23,1.79,1.4.89,2.92,2,3.39,2.69,3.54,4.07,1.89,2.37,3.06,3-.21.92-.88,1.74,1.66,2.27,4.09,3.13,1.86.77,2.35,1.91,2.05,4.55,1.74,6.06.1,4.48.69,5a3.41,3.41,0,0,0,3,.28c.68-.36,1.91-1.88,3.39-2.6s-.54-3.67,0-5.3,1.22-1.86,1.71-.61,1.17,6.07,2.43,5.82,3.32-.88,3.9-.44,1.19,6.77.18,7.82-4.71,5.63-5.38,6.45S344-49,345.41-49s-1.1,2.44-2,3.26.53,3.21,0,4.37-1.94.51-2.73,1.45,1.4.54,3,1.31.85,1.71.29,2.52.6,1,1.53,1.47,1.44,2.61,1.7,3.87,1.73.31,2.89,1,0,1.27.87,2.74,3.36,6.14,4,7,1.74.31,2.31.18,1.52,1.12,2.78,1.09,1.15-.37,2-.16,1.87,1.57,3.27,2.34,2.49-1.66,3.17-2.14,2.12,2,3,2.93,3.34.5,4.27.71,3,4.88,5.16,4.49.54-1.74.4-2.54,1.69-1.77,2.72-2.25-.61-1.48,0-2.18,1.32-2.57,2.47-2.59,1.23-1.52,2.27-1.55A7.2,7.2,0,0,0,392-22.81c.45-.47,2.41-.28,3.2-.76s1.78-2.92,2.47-2.93,4.06,1.41,5.32,1.38,1.77,1.8,3.15,1.77,2.25,2.83,3.07,3.73,1.74.42,1.76,1.34,2.91,1.55,3.83,1.53,1.52,1.11,1.53,1.69,2,1.79,3.51,2.8,2.43.63,3.24.73-1.1,2.33-2,3.84-1.33,2.56-2.47,3.05-1.37.14-2.53-.18-.79.6-1.46,1.53S412.5-2.09,411.83-1s3.93.72,6.23.78,3.1-.07,4.28,1.06,4.09,2.9,4.22,3.47a3.37,3.37,0,0,1-.87,2.44,3.07,3.07,0,0,0-.51,2.88c.37.92,3,1.2,4.38.14s4,.25,5.31.8,2,.88,2,2.37,2.34,1.91,2.58,2.59,0,.58-.88,1.52.59.79,1,2.74-3.54,1.11-3.87,1.92-5.46,2.89-5.78,4.16.6.91,1.63.88,1.65,1.81,1.69,3.3-.79.6-1.71.62A1.48,1.48,0,0,0,430.17,32c-.11.57-2.06.62-2.86,1s-2.75,5.47-3,5.82-1.39-.43-2.09-1.11-.34.47-1.12,1.3-2.87.29-3.81-.27a28.32,28.32,0,0,1-4-3.47c-.82-.91-3.07,1.44-3.75,2s-1.63-1.12-2.8-1.9-1.5-.08-3.67.43-1.83.84-2.85,1.56-2.32-1-2.8-1.9-.68.25-1.24,1.18,0,1,.28,2.07,2,1.79,2.82,2.69,1.11,3.32,1.12,3.89-.68.25-1.36.72-.88,2.21-1.32,2.91-3,.41-4.24,1-.64,2.09-1.89,2.92a12.7,12.7,0,0,0-2.38,1.55c-1,.94,1.15.09,2.09.87a12.25,12.25,0,0,0,6,1.83c2,0,3,2.12,4.43,2.31s1.63,1.12,2.33,1.56a3.13,3.13,0,0,1,1.09,2.4c0,.8,1.39.2,2,.18a5,5,0,0,1,2,.76,7.37,7.37,0,0,1,2.55,1.21,27.31,27.31,0,0,1,3.29,3c.95,1,.81.21,1.62.08s3.49,2.1,4.09,3.13a2.28,2.28,0,0,0,2.11,1.45c1.27.2,2.81,2.35,4.55,3.23s.95,1,2,1.45,1.27.21,2.09.88,3,.39,5.07.23,1.77,1.8,2.71,2.7,1.37-.37,2.16-1,1.76,1.35,3,2.12,1.61,0,2.52-.63,1.27.09,1.41,1.24,2,2.48,2.14,3.29-.68.47-1.93,1.3-2.52,5.35-2.14,7.07,2,2.37,3,2.81,1.21,2.62,1.36,4,2.91,1.89,4.75,1.62c1.26-.19,1.3,1.46,1.32,2.5s1.66,2.15,2.35,2.25.91-.6,1.58-1.53,3.1-.07,4,.48-.08,1.62.17,2.53,4,4.17,4,4.86,1.06,1.24,1.77,2,.22,4.71,0,5.52,1.17,1.13,2.11,1.8.85,2.28,1.57,3.64,1.68,3.07,2,3.76,4.3,1.86,5.7,2.52,1.67,2.61,2.38,3.86,2.71,2.58,3.77,3.71,4.14,5.09,5.41,5.52,4.92,4,6.09,4.7,1-1.75,1.67-2.34S503,151,503,151a11,11,0,0,1,1.21,2.5,2.24,2.24,0,0,0,.85,2.17,36.15,36.15,0,0,1,3.2,4.18c.47.68,0,.69-.08,1.5s1.16.78,1.3,1.58,1.86.88,3.26,1.77,1.71-.84,2-1.19,1,14.24,1,14.82a12.75,12.75,0,0,0,.75,2.63c.37,1.14,2.68,1.55,3.63,2.68s-.08,1.84.2,3.79,5.72,4,5.81,2.75,1.57-2,2.35-2.81.42-2.09,1.22-2.22,2,2.72,2,3.06a4.1,4.1,0,0,1-1,2.33c-.78.93.81.32,1.42,1.58s2,1.91,2.47,2.47a28.58,28.58,0,0,0,2,2.26c.71.67,2.54.17,3.92.14s1.27.44,2,1a2.77,2.77,0,0,1,1.2,2.39c-.09,1,.25.92,1.08,2.05s2,.07,3.35.73,4.14,5,4.73,5.42.67-.82,1.24-1.18,1.83-.15,2.4-.51a2.24,2.24,0,0,1,1.72-.15c.47.1.48.56.37,1s.13.69.26,1.38-.32.93-.88,1.63a22.89,22.89,0,0,1-2.24,2.7c-.91.82-.8.59-2.39,1.31s-3.28,2.84-4.07,3.2-1.06-.9-2.43-.64-1.66,3-2,3.73,3.16,2.46,4.68,3.46.39,2.18.42,3.45,1.64,1.57,2.56,1.55.83.67,1.31,1.58,1,3,1.81,3.87,1.72,0,2.51-.63,2.08.3,3.13.74,0,2.3,1,3.08,3.69.73,3.73,2.22,3.16,2.58,4.34,3.7,0,3.34-1,4.63-.32,1.27-.29,2.54-.56.58-1.69,1.41.16,2.3.17,2.76-1.93,1.08-3.2,1.11-2.07-.07-3,.64-.66,1.63-.63,2.78,1.63.76,2.22,1.44a40.12,40.12,0,0,0,3.27,2.46c1.41,1.12-2,2.69-3.59,3.88s1.06,1.24,1.08,2.27.39,1.84,1.24,4-.18,2.31-.4,2.77,0,1.27-.05,3a24.13,24.13,0,0,1-2.6,7.19c-.56.7-1.86-1.11-2.33-1.33s-1.68,2.22-2.45,3.62.74,2.17.9,4.12-1.69,6.83-2,7.3.61,1.59,1.2,2,.4,2.52.43,3.79,1.62.42,2.54.4,1.05.79,1.07,1.59.83,1,1.64,1.57-.18,2-.51,2.55-.17,2.76-.13,4.6,4.26,5.55,4.75,6.57,2.48,3.28,3.09,4.76,1.21,7.57,1.13,9.41-1.64,3.61-2.86,5.71S566,352.92,565,354s0,1.38-.08,1.73a9.15,9.15,0,0,0,.41,3c.39,1.83,1.81,3.76,3.11,5.45s.64,2.52.32,3.68,0,1.15.73,1.82.49,1.49.41,3.1,1,3.43,1,4-.44.81-1.34,1.64.13.92.61,1.59,0,1.38-1,2.21-.5,3.35-.82,4.39-4,2.28-4.43,2.75-.66,1.51-1.22,2.21-2.11-1.91-2.7-2.59a3.31,3.31,0,0,0-3.35-.73c-1.61.38-3.06,2.14-4.67,2.18s-1.36,1.18-1.91,2-1.25.94-1.92,1.88a43.72,43.72,0,0,1-5.64,5.07c-2.49,2-4.56,2.06-5.94,1.75a5.46,5.46,0,0,0-3.79.31c-1.83.61-2.09,4.53-2.89,4.9s-.57,0-1.61-.31-.45.81-1.48.83-.82-.55-1.74-.53a11.57,11.57,0,0,1-3.8-.26c-1.39-.43-.8.24-1.94.73s-.93-.44-1.75-.77-1.37.26-1.57,1.76,2.84,3.39,2.16,3.87-.44,1.16-1.1,2.09-.86,2.78-1.42,3.49,2.14,3.06,2.15,3.75-2.08-.3-3.24-.74-1.71.5-3.2.65-1.51-.66-2.68-1.44a9.88,9.88,0,0,0-5-1c-1.61,0-1.84.16-3.12-.62s-1.76-1.23-2.89-.4-.53,2.09-1.65,3.26-1.09,2.67-2,2.92-2.32-1.1-3.83-1.64-1,.83-1.58,1.42a3.35,3.35,0,0,0-.63,2.89c.26,1.14,2.92,1.89,3,3.5s.73,1.94.29,3a34.06,34.06,0,0,0-1.24,6.12c0,.69.15,1.72,1.19,1.93s1.42,1.58,1.68,3.07,2.09.87,3.12.74a1.44,1.44,0,0,1,1.76,1.34c.13.92,3.07,3.84,3.89,4.4s1.6-.5,2.06-.74,1.74.89,2,1.8.87,2.86,1.12,3.77-1.37.26-2.06.28-.31,1.5-.17,2.88,1.57,3.3,2.18,4.78-.09,1-1.14.6-2.07.05-4.37.1-5.26-3.68-6.42-4.23-.77,1.86-1.33,2.56-1.14.14-2.18.05-.29-2.64-.43-3.9-3.89-4.29-4.82-4.61-3.21.76-4.8,1.48a53.17,53.17,0,0,1-6.86,2.11,4.78,4.78,0,0,1-4.27-.59c-.35-.11-2.26,1.89-3,2.94s-.53,2-1,3.13-1.39-.55-2.1-1.45-1.51-.54-3.81-.72-2.32-.76-3.83-1.3-2.34-2-3.24-1-2.25,2.35-2.22,3.61,1.43,2.27,1.45,3.08.83,1.48,1.43,2.61-1.44,2.22-3,3.18a10.15,10.15,0,0,0-4.07,3.54,16.59,16.59,0,0,1-3.59,3.88c-.79.7-4.59.67-5.63.58a13.37,13.37,0,0,0-2.3-.29c-1.15,0-2.43-.53-3.7-.5s-1.25.38-1.82,1a23.15,23.15,0,0,0-2.22,3.5,14.21,14.21,0,0,1-2.56,2.85l.07.06c.79.66.62,1.62.92,2.1s-.08.77,1.38,1.79,1.93.25,2.25,1.4.15,2.39.65,3.35.44,2.49,1.58,2.17,1.42-1.47,2.45-2.46,1.32-1.37,2.38-1.2,2.78-.35,2.89.32,1.79,2.36,2.67,3.4a4.22,4.22,0,0,0,3.12,1.76c1.16,0,1.82-.43,2.79-.06s2,1.88,2.65,2.34,2.15,1.5,2.17,2.36,1.29,2.09.24,2.5a8.85,8.85,0,0,0-3.31,2.28c-.66.88-1.67,2.93-2.34,3a4.25,4.25,0,0,0-2.37,1.59,26.09,26.09,0,0,0-2.35,6.88c-.15,1.54-.84,9.63-.82,10.4s.5,9.9.14,11a15.92,15.92,0,0,0-.66,4.72c0,1.64-.06,6.26.15,7s.8,1.14.52,1.82-.85.4-.74,1.17a13.52,13.52,0,0,1,.24,2.11c0,1-1,2.33-1,3.87s.52,1.82,1.48,1.79,1.14-.6,2.28-1.11,3.15-1.32,2.87-.92-1.34.12-.65,1.26,1.28,1.22.53,1.91S445.73,565.4,445,565s-1.46-.64-1.44,0-.17,1.35,1.66,1.31,3-1.12,3.06-.84-.84,1-1.71,1-2.69,0-3.26.56-1,1.37-1.69,1.67-.55,1.26-1.7,1.58-2.5-.14-2.1.43a3.08,3.08,0,0,0,2.15,1.49c1.15.17,1.63.16,2.79.42s2.9.61,3.66.21a23,23,0,0,1,4.11-1.35,22.73,22.73,0,0,0,5.16-1.46,7.38,7.38,0,0,0,2.82-3.23c.27-.88,1.79-1.49,2.83-2.37S464.74,564,465,563s1.86-2.64,2.22-4,2.67-5.16,3.22-6.52,1.45-3.78,2.4-4.67,2.53-2.94,4-3.65,4.39-1.25,6-1.86,4.56-2.22,5.9-2.63,4.47-2.41,6-2.83,3.52-1.52,5.15-2.13,5.53-1.86,6.49-2.17,1.12-1.46.64-1.65-1.46-.73-.71-1.52,2.53-3,2-3.8-2-2.45-2.37-3-1.49-2.08-2-2.84a22.39,22.39,0,0,1-2.1-3.71,4.49,4.49,0,0,0-1.3-2.28c-.69-.56.93-1.08.93-1.08a8.82,8.82,0,0,1,1.85,1,47.45,47.45,0,0,1,3.74,3.67,12.7,12.7,0,0,0,2.75,2.44,32.32,32.32,0,0,1,3.5,1.75c1.17.75,2.16,1.88,3.32,2.33s2.88-.16,3.55-.36,1.93-.05,2.95-1.7,1.77-2.26,2.14-3,.05-2.22,0-3.47.45-1.55-.9-1.81-2-.53-2.06-1.58a3.31,3.31,0,0,0-1.31-2.77,31.55,31.55,0,0,1-3.63-2.9c-1-1-2.36-2.35-3-3.2a34.79,34.79,0,0,0-4.32-4,25.49,25.49,0,0,1-4-3.28c-1.08-1.22-.23-1.92-1.31-2.76s-1.1-1.9-2.84-2.44-2.31.15-3.28-.5-1.18-1-1.85-1,2.09-1.2,3.05-1.22,2.52.81,4.05.68,1.82-.43,2.29-1a5.19,5.19,0,0,1,3-1.61c1.06,0,2.3-.63,3.93-.86s2.7.62,4.73,1a21.31,21.31,0,0,1,4.93,1.14,8.87,8.87,0,0,0,4.16,1.06c1.73,0,4.66,2,5.34,2.19s1.36.45,1.34-.51.14-2.12.52-2.22a3.59,3.59,0,0,0,1.1-2.53c0-1,.17-1.25-.23-2s-.52-1.63-1-2.1-1.18-1.22-1.47-1.22-1-1.61-1.38-1.6-1.21,2.05-2.18,1.68-1.17-.64-1-1.61.25-1.64,1-1.66,2.49-.44,2.67-1.11,0-1.74.63-2.13,1.62-.62,1.51-1.29.27-1-.61-1.52-1.46-.55-1.28-1.13,1-2.33,1.19-2.72.48-.3.6.76a5.66,5.66,0,0,0,2.57,3.31c.87.27,1-.51,1.71-.81a2.34,2.34,0,0,1,2.23.81,11.33,11.33,0,0,1,1.1,1.52,18.54,18.54,0,0,1,.54,2.78c.21.95,1.2,2.09,1.67,1.69a2.28,2.28,0,0,0,1.12-1.75,4.88,4.88,0,0,0-.43-2c-.31-.76-1-1.32-1-1.7a1.23,1.23,0,0,1,1.13-1,1.16,1.16,0,0,1,1.18,1.13,4.77,4.77,0,0,0,.33,1.82,4.79,4.79,0,0,1-.05,2.31c-.18.58-.34,1.64.71,1.33a14.39,14.39,0,0,1,3-.93c.86,0,1.65.73,2.61.71s1.37,1.12,2,1.49.8,1.53,1.4,2.28,1,1.42,2,.92.92-1.85,2-2.45a10.9,10.9,0,0,1,4.3-1.44,10.22,10.22,0,0,0,4.11-1.15,13.61,13.61,0,0,0,2.82-3,5.11,5.11,0,0,1,2.74-2.08c1.05-.31,4.47-2.12,6.09-2.92a19.3,19.3,0,0,0,4-2.59c1-.89,2.85-1.7,3.72-1.53a28.69,28.69,0,0,0,4.25.77c.48-.1,2.33-3.51,2.59-4.67s.59-4,2.58-5.16,3.15-1,4.29-1.73a7,7,0,0,1,4.32-.57c.68.27,2.38-1.11,2.84-2.09a4.26,4.26,0,0,1,1.68-2.15c.76-.4,2.48-.63,3.63-1s.75-.79,1.48-2.73a8.25,8.25,0,0,1,3.75-4.12,6.7,6.7,0,0,1,4.12-.86c1.64.16,3,1.18,3.46-.17s.12-3,1.16-3.78,1.6-1.77,2.66-1.79,1.81-.71,3.06-.74,2.22.43,3,.41a4.29,4.29,0,0,0,3-2.28c.36-1.16-.13-1.24-.07-3s.19-4.42.17-5.48.33-2.22,1.2-2.34,2.51.33,3.46-.27,2.36-1.88,2.53-2.84,0-2.5.79-3.19,1.7-1.39.82-2.43-1.69-2.46-1.51-3a13,13,0,0,0,.32-2.6c0-.49.35-1.55.33-2.42s0-3.17-.37-3.84a9.45,9.45,0,0,1-1.32-3,12,12,0,0,1,.14-2.31,11.88,11.88,0,0,0,1,3.54,8.14,8.14,0,0,1,.94,3.35,17.87,17.87,0,0,0,.38,4c.31.86.63,2.1,1.48,1.6s1.72-.52,1.21-1.66-.8-1.33-.52-2.11a1.9,1.9,0,0,0-.25-2.3c-.79-.85-1.27-1-1.48-1.89s-1.28-1.32-1.44-4.2.43-2,0-3.56-1-4.12-.69-4.7,1.42-1.09,1.12-1.76a18.66,18.66,0,0,0-1.8-3,19,19,0,0,1-1.88-2.46c-.4-.86-1-1.9.45-1.26s3.11,1.37,3.71,2.42,2.37,2.64,2.84,2.15,0-1.25.54-1.55.63-2-.75-3.55-3.54-3.48-4.14-4.62-1.47-1.22-1.11-2.28a18.31,18.31,0,0,1,2-3.61c.84-1.26,2.93-2.56,3.87-3.54a29.34,29.34,0,0,0,3.55-4.6c.74-1.37.55-1.27,1.32-1.09s1.34-.51,1.21-1.86-1.79-2.94-3.17-4.54-2-2.65-3-3.88-1.46-.74-1.9-3.52a8.32,8.32,0,0,1,.28-4.62c.27-1.06.24-2.22-.23-1.92s-.06,2-1,1.85-1.07-.55-.71-1.52,1.78-2.16,1.09-3-2.13-.72-2.63-1.67a3.87,3.87,0,0,1-.45-2.68c.17-.87-.06-2.7,1-2.24s1.09,1.42,1.3,2.18,1.75,1.12,1.74.54a3.25,3.25,0,0,0-.84-3.06c-1.27-1.22-2.35-2.15-2.47-3.11a4.71,4.71,0,0,0-1.5-2.66c-.79-.76-1.29-1.8-.25-2.69s.44-1.74.23-2.6a10.65,10.65,0,0,1-.36-3.07c.07-1.06-.69-.95-.05-2.31s0-3.37.71-2.71a5.13,5.13,0,0,1,1.13,3.44c-.07,1.15.46,3.06,1.32,3.05s.63-2,.6-3.48.32-2.89-.27-3.36-2.14-1.11-2.07-2.17a12.86,12.86,0,0,0-.79-5.17,14,14,0,0,0-2.19-3.51c-.69-.76-2-2.08-1.59-2.37s1.26.55,1.75.73-.32-1.05-.72-1.81a4.4,4.4,0,0,1-.73-2.68c.17-1,.64-1.55-.25-2.4s-2.66-2.92-2.78-4.07a20,20,0,0,0-.57-4.32c-.41-.86-2.29-3.31-2.32-4.57s.12-3.17.11-3.94.83-1.56.12-3.08a17.29,17.29,0,0,0-3.07-4c-.79-.85-1.57-1.41-1.69-2.37a16.4,16.4,0,0,0-1.84-4.86,11.64,11.64,0,0,1-1.94-5.06c-.13-1.92-1.26-5-1.09-5.94a4.46,4.46,0,0,1,.9-2.62c.66-.59,1.24-.7.46-1.07s-2.37-1.09-2.47-2.16.51-1.39-.51-2.29-1.63-1.19-1.65-1.88-.27-1.68-1-1.67a1.26,1.26,0,0,0-1,2.1c.87,1.36,1.42,1.88,1,1.89s-1.25-.89-1.24-.43.19,1.84-.12,1.38a11.25,11.25,0,0,1-1-2.28c-.17-.53.75-.7-.34-1.37s-1.86-.88-2.34-1.94-.35-1.84-.81-1.83-.76.33-1.13,1-2.14.58-1.85-.42,1.45-.49,1.43-1.26-.17-.69-.87-1-2.24-.95-2.64-1.78.21-.93-.66-1.75-2.27-2.18-3-3a36.63,36.63,0,0,1-2.78-4.31,36.16,36.16,0,0,1-2.33-4.55c-.33-1-1.42-1.74-1.71-.89s.38,3.14.38,3.14-.38.39-1.24-.43-1.79-1.11-1.42-1.81.59-1.09-.26-1.22-.24-.46.68-.48,2.16.34,2.3-.28-.4-.68-1.26-1.28-2.48-1.17-3.19-2.3-.74-1.91-1.2-2.13-.77-.36-1.32-.58-.63-1-1.26-1.66-2.26-1.33-2.81-2a1.86,1.86,0,0,1-.2-2.22c.45-.55.68-.4.82-1.24s0-1.08.43-1.32,1.3.05.52-.7-1.09-.44-2.39-.64-2.45.21-2.93-.55,0-1.38-.66-2.21-1-2.66-1.37-2.8-1,1.32-1.66,1.11-1.64-1.42-2.25-1.26-1.1,2.71-1.7,3a2.1,2.1,0,0,1-2.23,0c-.93-.59-2.56-1.47-2.73-2.24s-1.5-1.73-.89-2.05,1.6-.49.82-1.24-3.76-3.52-4.47-4.2-.78-.83-1.63-.73a1.43,1.43,0,0,1-1.62-.73c-.4-.61-1-2-1.82-2.26s-4-.76-4.78-1.35-3.5-2.15-2.81-2.24a6.56,6.56,0,0,1,3.32,1.15c1.17.74,4.33,1.52,3.7,1s-4.9-3.11-6.7-4.6-9.9-7.53-10.92-8.51-.85-.21-1.46.27-1.57,1.56-2,1,.13-1.23.81-1.78.82-.94.73-1.48-2-2.48-2.68-3.24-1-.66-.73-1.74.82-1.17-.81-2.13-6.55-4.54-8-5.66-6.55-4.91-7.26-5.44-.38.17-1.71-1.19c-.89-.9-4.37-5.83-6.47-8.21a75.27,75.27,0,0,1-4.53-6.88c-.63-1-.33-1.22-1.41-1.35s-1.33-1.12-2.09-.88-.75.71-1.81,1.27-1.91.35-1.17-.59,1.44-1,0-1.45-3-.32-3.32-1,.28-1.31,1.83-.81a24.55,24.55,0,0,1,4.87,1.89c.78.59,2.34,1.86,1.22-.49s-1.74-2.42-1.86-4.1,1.3-3.71,1.67-4.26,2.44-.74,2.35-1.28-.71-.83-1.33-1.35a21.74,21.74,0,0,1-3.41-4.83c-.41-1.15-.2-2-1.27-2s-2.29.51-2.43,1-.53.17-1.23,0-1.26-1.58-.26-1.61,1.6-.26,1-.86a44,44,0,0,0-5.39-4.41c-1.08-.51-3.8-2.22-4.34-2s-2.57,1.67-2,.73.6-1-.19-1.76-3.51-2.76-4.77-4a5.24,5.24,0,0,1-1.67-2.8c-.33-1.07-.7-.68-1.72-1.5s-5.64-8.54-5.74-10-.52-2.44-.73-1.67-1.22,3.71-1.55,2.8,1.05-1.25.41-2.16-1.41-1.2-.65-1.83,1.44-.64.19-1.77a17.69,17.69,0,0,1-2.52-2.7c-.55-.76,1.54,0,.6-.86s-3.74-2.37-4.14-3.36a4.09,4.09,0,0,1-.38-3.29c.51-1.16.91-3.78,2.05-4.34s3.06-.53,3-1.29-.7-4,.43-5,1.78-2.65,2.16-2.88.78.51,1,.13-.67-2.52-1.32-4.19.63-2.78.43-4.54a33,33,0,0,1,.38-7.45c.35-1.46,1.8-5.25,2.56-5.5s1.67-.65,1.66-1.34-.13-2.38.24-2.92a7.34,7.34,0,0,0,1.09-2.86c0-.77.17-2.54.92-3.25s1.39-3.17,3.16-2.9a17.94,17.94,0,0,0,4.23.44,3.58,3.58,0,0,0,3.11-1.53c.89-1.17,1.74-1.11,2.48-2.28s4.7-6.08,5.44-6.94,1.75-.89,3.05-1A5.11,5.11,0,0,0,508,5.84c1.12-1.17,3.18-5.36,3.15-6.51s.12-1.69-.66-2.36-2.18-1.18-1-2.13S511.45-7,512.3-7s2.2-.89,1-1.25-5.51.66-5.14-.11,1.66-1.19,2.64-1.82,1.27-1.8,1.71-2.5,1.67-.8,2.36-.89.9-1,1.8-1.88a6.56,6.56,0,0,1,2.57-1.75c1-.33.58-.84-.16-1.43a12.93,12.93,0,0,1-2.71-2.5c-.47-.82.19-1.33.28-2.39s-1.15-1.47-.11-2.11,1.87-.76,1.57-1.81-3.15-2.09-2.73-3.15.58-1.4,2.25-1.22,4.43-.38,3.4,1-2.55,2.34-1.49,2.54a2.11,2.11,0,0,0,2.42-.84c.54-.84,1.57-1.64,2.47-1.33s1.63,1,2.41,1.12,2,.45,2.55-.06a1.35,1.35,0,0,0,.58-1.29c0-.56.6-.79.64-1.35s-.36-1.15.14-.94a2.18,2.18,0,0,0,2.34.22c1.32-.58,2.13-1.49,1.82-.48s-1.75,1.26-1.78,2.37-.24,1.56.77,2,1.4.58,2.43-.38,1.41-1.59,2.51-1.89,1.65-1,3.15-1,3.07.77,3.14-.84-.51-3,0-3.78S546.46-39,546.33-40s-1.26-4.35-.56-5.14,1.88-.71,2.94-.46a2.75,2.75,0,0,0,2.32-.16c.83-.41.75-1.35,1.8-1.37s2.45.44,2.89,0,.9-2,2.2-3.27a4.76,4.76,0,0,1,2.47-1.5,3.48,3.48,0,0,0,1.79-1.53c.6-.85,1.67-2.59,3.15-3.29s1.42-1.09,2.52-1.33,1.34.13,2.18.39a1.06,1.06,0,0,1,.32.16c.35-.58.68-1.11,1.1-1.77C572.21-60.46,570.25-60.22,569-60.79Z"/>
          </g>
          <path class="cls-4" d="M570.41,244.09c-1.18-1.12-4.31-2.2-4.34-3.7s-2.8-1.43-3.73-2.22,0-2.64-1-3.08-2.33-1.33-3.13-.74-1.69,1.54-2.51.63-1.33-3-1.81-3.87-.39-1.6-1.31-1.58-2.53-.29-2.56-1.55,1.1-2.44-.42-3.45-5-2.76-4.68-3.46.61-3.47,2-3.73,1.63,1,2.43.64,2.47-2.47,4.07-3.2,1.48-.49,2.39-1.31a22.89,22.89,0,0,0,2.24-2.7c.56-.7,1-.94.88-1.63s-.36-.91-.26-1.38.1-.92-.37-1a2.24,2.24,0,0,0-1.72.15c-.57.36-1.84.16-2.4.51s-.66,1.63-1.24,1.18-3.33-4.76-4.73-5.42-2.52.4-3.35-.73-1.17-1-1.08-2.05a2.77,2.77,0,0,0-1.2-2.39c-.71-.55-.6-1-2-1s-3.21.53-3.92-.14a28.58,28.58,0,0,1-2-2.26c-.48-.56-1.87-1.22-2.47-2.47s-2.2-.65-1.42-1.58a4.1,4.1,0,0,0,1-2.33c0-.34-1.22-3.19-2-3.06s-.43,1.39-1.22,2.22-2.26,1.54-2.35,2.81-5.54-.8-5.81-2.75.74-2.66-.2-3.79-3.26-1.54-3.63-2.68a12.75,12.75,0,0,1-.75-2.63c0-.58-.68-15.18-1-14.82s-.64,2.08-2,1.19-3.13-1-3.26-1.77-1.4-.77-1.3-1.58.55-.82.08-1.5a36.15,36.15,0,0,0-3.2-4.18,2.24,2.24,0,0,1-.85-2.17A11,11,0,0,0,503,151s-.74-2.17-1.42-1.58-.5,3-1.67,2.34-4.81-4.27-6.09-4.7-4.35-4.39-5.41-5.52-3-2.46-3.77-3.71-1-3.2-2.38-3.86-5.34-1.84-5.7-2.52-1.32-2.39-2-3.76-.64-3-1.57-3.64-2.33-1-2.11-1.8.7-4.73,0-5.52-1.76-1.34-1.77-2-3.77-3.94-4-4.86.76-2-.17-2.53-3.37-1.42-4-.48-.89,1.63-1.58,1.53-2.33-1.22-2.35-2.25-.06-2.69-1.32-2.5c-1.84.27-4.61-.25-4.75-1.62s-.31-3.56-1.36-4-2.67-1.09-3-2.81.9-6.23,2.14-7.07,2.06-.5,1.93-1.3-2-2.15-2.14-3.29-.5-1.83-1.41-1.24-1.24,1.41-2.52.63-2.25-2.71-3-2.12-1.22,1.87-2.16,1-.64-2.86-2.71-2.7-4.25.44-5.07-.23-1-.44-2.09-.88-.24-.57-2-1.45-3.28-3-4.55-3.23a2.28,2.28,0,0,1-2.11-1.45c-.6-1-3.29-3.27-4.09-3.13s-.67.93-1.62-.08a27.31,27.31,0,0,0-3.29-3,7.37,7.37,0,0,0-2.55-1.21,5,5,0,0,0-2-.76c-.57,0-1.94.62-2-.18a3.13,3.13,0,0,0-1.09-2.4c-.7-.44-.95-1.36-2.33-1.56s-2.47-2.36-4.43-2.31a12.25,12.25,0,0,1-6-1.83c-.94-.78-3.1.07-2.09-.87a12.7,12.7,0,0,1,2.38-1.55c1.25-.83.64-2.31,1.89-2.92s3.79-.31,4.24-1,.64-2.43,1.32-2.91,1.37-.14,1.36-.72-.3-3-1.12-3.89-2.57-1.66-2.82-2.69-.83-1.14-.28-2.07.76-2.09,1.24-1.18,1.78,2.61,2.8,1.9.67-1.05,2.85-1.56,2.5-1.21,3.67-.43,2.12,2.49,2.8,1.9,2.93-2.95,3.75-2a28.32,28.32,0,0,0,4,3.47c.94.56,3,1.09,3.81.27s.41-2,1.12-1.3,1.87,1.46,2.09,1.11,2.18-5.46,3-5.82,2.75-.41,2.86-1a1.48,1.48,0,0,1,1.35-1.41c.92,0,1.74.88,1.71-.62s-.65-3.32-1.69-3.3-1.94.39-1.63-.88,5.45-3.34,5.78-4.16,4.26,0,3.87-1.92-1.88-1.8-1-2.74,1.13-.83.88-1.52-2.55-1.09-2.58-2.59-.73-1.82-2-2.37-4-1.87-5.31-.8-4,.78-4.38-.14a3.07,3.07,0,0,1,.51-2.88,3.37,3.37,0,0,0,.87-2.44c-.13-.57-3-2.35-4.22-3.47s-2-1-4.28-1.06-6.9.27-6.23-.78,2.16-1.31,2.83-2.25.3-1.85,1.46-1.53,1.39.66,2.53.18,1.58-1.53,2.47-3.05,2.79-3.74,2-3.84-1.72.27-3.24-.73-3.5-2.23-3.51-2.8-.61-1.72-1.53-1.69S411-17.36,411-18.28s-.93-.44-1.76-1.34-1.69-3.76-3.07-3.73-1.88-1.8-3.15-1.77-4.63-1.4-5.32-1.38S396-24,395.22-23.57s-2.75.29-3.2.76a7.2,7.2,0,0,1-3.43,1.11c-1,0-1.12,1.52-2.27,1.55s-1.91,1.88-2.47,2.59,1.07,1.7,0,2.18-2.85,1.44-2.72,2.25,1.78,2.14-.4,2.54-4.24-4.28-5.16-4.49-3.45.19-4.27-.71-2.27-3.4-3-2.93-1.77,2.92-3.17,2.14-2.46-2.13-3.27-2.34-.69.13-2,.16-2.21-1.22-2.78-1.09-1.71.73-2.31-.18-3.11-5.57-4-7,.3-2.07-.87-2.74-2.64.29-2.89-1-.77-3.43-1.7-3.87-2.09-.65-1.53-1.47,1.34-1.75-.29-2.52-3.8-.38-3-1.31,2.18-.28,2.73-1.45-.88-3.54,0-4.37,3.38-3.3,2-3.26-4.1,2-3.42,1.22,4.36-5.39,5.38-6.45.41-7.37-.18-7.82-2.64.18-3.9.44-1.94-4.56-2.43-5.82-1.17-1-1.71.61,1.48,4.57,0,5.3-2.71,2.24-3.39,2.6a3.41,3.41,0,0,1-3-.28c-.59-.56-1-3.54-.69-5s-1.26-4.92-1.74-6.06.09-1-2.35-1.91-4.77-2.31-4.09-3.13,2-1.08.88-1.74-2.92-1.66-3.06-3-2-3-3.54-4.07-1.42-1.69-2.92-2-1.64-1-2.23-1.79-1.52-.89-2-1.45a18.65,18.65,0,0,1-1.6-4.8,2.07,2.07,0,0,1,0-.61l-1.63-1.27-.05,0a8.49,8.49,0,0,0-3.06-.76,13.43,13.43,0,0,1-2.51.82c-.66,0-1.33-.38-1.72.42s-1.29,3.2-2.23,2.28-1.36-2.9-2-3.82-2.28-2.36-3.87-1.55A8.72,8.72,0,0,0,289.06-95c-.51,1.06,1.09,2,.43,2.38s-2.24,1.35-2.36,2.54,0,2.13-.9,2.14-4,.44-2.77,1.75,3,5.14,2.32,5.68-1.31,1.07-.5,2.12,1.25,5.29,2.72,5.67a4.52,4.52,0,0,1,3.08,2.89c.28,1.19,2,3.82,3,4.07s.16,1.59-.24,2.13-.49,3.45.05,3.71-.78,1.47.68,2,2.68,2.35,1.89,2.76-3.84.31-3.29,1.5,1.08,2.51.17,3.31-.12,1.33-.11,2.65-.74,4-.59,5.58.55,1.72,2.14,2.23,2.28,2.23,1.36,2.77-1.59-.38-1.71.68,1.36,3.57,0,3.45-2.38.69-3.19-.23-.82-2-2-2-2.64,1.35-2.92,0,.51-2-.16-2.39-1.2-.78-3.45-.62-3.84,1-5.82,1-4.61,3.5-5.55,2.32-2.56-3.69-2.3-4.22,1.45-1.08.64-1.86-1.6-.78-.81-1.45,2-1.88,1.3-2.54-2.41-1.3-2.29-2.23.52-1.72.63-2.92.63-3.06-.3-3.44a7.84,7.84,0,0,0-2.69-.47c-.32.65.39.75.84,1.42S262.29-48.17,261-47s-4.75,1.64-6.85,3.66A7.29,7.29,0,0,1,249.25-41c-1.59.28-2.4-.9-3.18,0s-2.82,8.38-3.46,10-2.89,2.69-4.35,3-.65.67-.24,1.73-.12.93-.91,2-.49,3.18-.22,3.84,3.84-1.1,5.43-.72-3.41,2.82-4.73,3.9-4.51-.61-5.84-.6-2.25.16-2.37.83-3.57,1.5-4.75,2.44a20.32,20.32,0,0,0-3.4,4c-1,1.47-2.81,9.18-3,12a10.28,10.28,0,0,1-1.78,4.32,2.36,2.36,0,0,1,.21,1.13c0,1.69-.48,2.54,0,3s2.79,1.46,3.15,1,.12-2.42,1-2.66,1.82-.73,1.94-1.21.12-1.7.84-2.06,3.51-1.33,4.6-.24,2.54,5.57,3.51,6.78,1.7,2.66,2.91,3.26a4.18,4.18,0,0,0,2.54.37c.61,0,1.45-.24,1.45,1a26.14,26.14,0,0,1-2.18,6.89,11.11,11.11,0,0,0-.84,4,3.71,3.71,0,0,1-1.7,2.3c-1.21.85-2.18,3.15-2.42,4s-.73,2.18.12,3.27.49,3.15,1.94,4.6,1.21,2.3,1.45,3.39,2.79,1.82,3,2.3,1.33-.36,1.81-1,.49-2.42,2.79-.85,3.51,2.79,5.08,2.42a5.13,5.13,0,0,0,3.15-2.66c.72-1.16,1.81-3.75,3.51-3.75a15,15,0,0,1,5.81,1.09,9.59,9.59,0,0,0,4.84,1.5c2.06,0,2.78-1.14,3.63-1s3.15,1.94,2.66,3-.6,2.54-1.69,2.54-2.18.36-2.18,1,.61,1.81.24,2.42a2.78,2.78,0,0,0-.48,1.94c.12.72,2.42.84,2.42,1.57a15.83,15.83,0,0,0,.36,4.48c.49,1.45-.48,3.63-.36,4.23s2.54,2.67,3,3.27,1.93,1.7,1.09,3-2.3,2.18-2.3,3.27-1.94,1.93-1.94,4a29,29,0,0,0,.48,3.75c0,.85-2.05.85-1.57,2.55s2.54,1.57,1.94,2.9S268.43,90,267.7,90s-1,.12-1,1.09,0,1.7-1.09,1.94-1.09,1.33-1.94,1.33-1.45,1.57-1.82,2.42-1.09,2.91-.48,3.51,3.75,1.57,3.75,2.3-.6,1.45-.48,2.54a13.32,13.32,0,0,0,1.31,3.66c.47.94,0,2,0,3.44a24.38,24.38,0,0,0,.47,4.38c.16.47-1.56.63-2,1.56s-.32,1.88-1.72,3.29-3,1.09-3,3.13.63,3.13-.47,3.6-1.72.78-1.72,1.4a5.5,5.5,0,0,1-.31,1.72c-.16.47.16.79.31,1.25s-.62,2.19-.93,3-3.45,2.19-2.66,3.44,2.66,1.41,3.91,1.87,3.13,2.35,4.38,3,2,1.56,3.13.94a35.72,35.72,0,0,0,3.28-2.66c.63-.47,1.25-3.45,1.88-3.91s3.91-1.88,5.47-2.82,2.5-2.66,3.13-3,1.56-1.57,2.5-1.41,3.6-1.56,3.6-1.56-1.41-.94-.78-1.72.47-1.88,1.09-2.19,3-.79,4.38-1.41,1.57.62,2.19-.78a11,11,0,0,0,.94-3.6c0-.63-.15-3.13.78-3.29a6.26,6.26,0,0,1,3.44.79,4.31,4.31,0,0,0,4.23-.47,21.78,21.78,0,0,0,3.28-3.76c.47-.78.79-3,1.57-3.44a4.48,4.48,0,0,1,3.6-.47c1.4.47,2.5-.31,2.5.78s2.19,3,3.44,3.91,1.56,2.19,2.35,2.66,2-.15,3.12.47,2.66,3.91,4.38,3.91,6.42-.47,6.42.16,1.87,3.28.94,3.91-1.41,2.66-.47,3,4.22,1.88,4.06.78-2.5-1.72-.94-2.81,3-.94,4.38-2,5-3,6.26-3.92,2.35-2.34,3.29-1.56,2,1.56,2.81.78,2-2.34,1.72-3.44-2.66-2.5-.31-3.44,3.44-.63,3.6-1.56-.16-3,.62-3.29,5.95-1.88,5.32-3-3.6-1.72-2.34-2.82a12.8,12.8,0,0,1,3.75-2.34c1.72-.79,2.35-1.41,4.07-.79a9.83,9.83,0,0,0,5.16.63c1.72-.31,2.81.47,4.38.78s2,1.72,3.28,2.19a8.86,8.86,0,0,0,3.13.47c1.72.16,1.57-1.09,3.13.47s1.25,2.35,2.19,2.19,3.13-3.13,4.69-2.35a11.18,11.18,0,0,1,4.38,4.54,12.77,12.77,0,0,1,1.25,5.32c0,.62,0,.94,1.88,2.5s4.69,3.75,5.63,6.41,1.25,4.23,2.5,4.38,2.35-.15,3.13,2.19,2.19,6.73,5.16,8.29a30.7,30.7,0,0,0,6.57,2.51c1.57.47,3.6,2.5,4.54,3.13s.78,1.56,2.19,3.12,2.66,2.66,2.66,4.23.62,7.82,0,9.23-2.5,6.57-2.5,8,.31,5.17.31,6.26-.63,2.19-.63,3.29,1.41,3.12,1.25,4.69-2.34,7.51-1.25,9.07,6.1,2.66,6.42,4.85,1.87,3.44,3.91,4.85,3,4.53,3.75,7,1.41,3.13,3.91,4.06a56.82,56.82,0,0,0,7.51,2c1.56.31,5.47.31,6.41.78s-1.4-.16-2,1.88-1.41,3,.31,5.16,2.82,4.85,4.07,4.85,3.6-.16,4.38.62,3.75,2,3.75,3.91.32,4.07-.31,5.17-1.25,1.56-1.09,2.66.31,3.91-1.73,4.22-4.22.78-3.91,2.34,2,1.88,3.6,1.88,2.82.47,2.66,1.25-1.09,1.88-2.5,3.13a11.85,11.85,0,0,0-3,3.76c-.47,1.09-.94,3.12-.16,3.12s1.88.94,2.66,2.19.62,1.57,2.35,2.35,3.59,1.1,2.34,1.41-3.6-.32-3.13,1.25,1.72,2.19.63,2.35-1.88.31-1.88,1.09-1.09,1.41-1.41,2.66a3,3,0,0,0,.32,2.66c.47.78.78,2.5.31,3a2.17,2.17,0,0,0-.47,2.19c.31.78,1.1,3,.78,3.91a18.81,18.81,0,0,1-2.81,3.91c-1.25,1.57-.94,3-2.19,3.13s-1.88,2.19-3,2.19.31-1.88-1.26-.78-2.19,2-3.28,2c-.89,0-2.08-.51-2.92,0,0,.15,0,.32.07.49l.05-.17c.4,1,.91,2,1.16,2.58.43,1.08,2,2.41,2.26,3.64s-.22,2.32,1.56,2.69,1.12,1.21,2.91,2a5.91,5.91,0,0,0,5.05-.24c1.35-.72,2.27-2.1,4.61-1.34s2.9,1.58,4.4,1.68a27.3,27.3,0,0,1,3.56.2c1.23.24.56.53,2.09,2s3.48,2.92,4,4a4,4,0,0,0,3.59,2.11c1.78,0,2.32-.46,4.23-.23s3.45,1.83,3.56.46-1.27-2,.2-3.14,4.33-1.87,3.2-3.48-2.65-2.54-2.95-3.76.51-1.65-1-2.43-2.89-1.17-2.91-2.26.36-2.19-.62-3.26-2.65-2.67-1.7-2.83,2.73.21,4.22-.64a5.05,5.05,0,0,1,3.25-1c1.5,0,2.07.91,3-.07s-.64-4.08,1.82-4.27,2.76,1.3,4.52,1,3.14-.2,3.65-1.85,1.74-1.54,2-2.09.12-1,.92-1.53,1.18-2.07,2.45-.46.34,3.13,1.3,3.11,1,1.34,2.63,2a45.47,45.47,0,0,1,4.68,1.81c1.52.78,3.22,3.2,4.2,4.27s3.66-1,4.62-.92,1.39,1.2,2.46.49,1.61-1.67,2.66-3.2,2.16-1.14,3.12-.88,1.64-.18,2.44-1.15,1.75-1,2.68-2.11,1.77-.31,2.16-1.14.37-1.92,1-2.61-.45-1.9,1.46-2,2.21,1.18,3.31,1.57,3.3,1,3.29.33-.33-2.58.74-3.42a20.71,20.71,0,0,0,2.94-2.8c.16-.21.43-.54.75-.92a9.2,9.2,0,0,1-.93-3.21c0-1-2.67-1.09-1.08-2.27s5-2.76,3.59-3.88A40.12,40.12,0,0,1,563,261.4c-.59-.68-2.2-.29-2.22-1.44s-.28-2.07.63-2.78,1.71-.61,3-.64,3.21-.65,3.2-1.11-1.31-1.92-.17-2.76,1.72-.15,1.69-1.41-.72-1.25.29-2.54S571.58,245.22,570.41,244.09Z"/>
          <path class="cls-4" d="M357.54,704.81s-.74.12-.74.62-.49,2.7.37,2.33S359,707,359,706.35s-.86-1.05-1.1-1.11S358.21,705.18,357.54,704.81Z"/>
          <path class="cls-4" d="M198.16,674.92c-.52,0-2.15.18-2.76.18s-1.73-.86-1.73.12a3.74,3.74,0,0,0,2,3.2c1.42.68,2.4-.67,2.4,1.17s-.24,3,.37,3.08a8.7,8.7,0,0,0,3.14-1.11c.55-.37.92-1.66,1.47-1.54s1.42,1.36,2.1,1,2.64-1.17,2.52-2.09a3.39,3.39,0,0,0-.92-2.46c-.74-.56-2.22-1.54-2.28-2.16s-.18-1.9-.8-1.66a7.31,7.31,0,0,0-1.91,1.72,2.36,2.36,0,0,1-1.84,1C199.09,675.41,198.84,674.92,198.16,674.92Z"/>
          <path class="cls-4" d="M203.52,681.75a4.6,4.6,0,0,0-1.91,1.9c-.19.62-1.17.43-1.05,1.35s.86,2.47,1.66,2.34,2-.86,1.66-1.47-1.47-.86-1.16-1.66S204,681.5,203.52,681.75Z"/>
          <path class="cls-4" d="M204.19,683.28c-.51.13-1,.68-.61,1.17s.67,1.35,1.1.62S204.68,683.16,204.19,683.28Z"/>
          <g>
            <path class="cls-4" d="M368.86,468.73c-.43-.43-1.79-1-2.16-1.84s-.3-1.29-1.35-1.23c-1.29.07-2,.18-1.41,1.29s.12,1.41,1.16,1.41,1.17.13,1.36.68.61,2,1.41,1.42S369.29,469.16,368.86,468.73Z"/>
            <path class="cls-4" d="M369.1,472.85c-.06-.3-.31-.55-.8-.3-.67.33-.55.8-.06,1.6s.31,2.09,1.11,1.47,1.41-1,.74-1.6S369.16,473.16,369.1,472.85Z"/>
            <path class="cls-4" d="M360.86,487.92c-.7-.06-.43.68.06,1.3s1.72,1.23,1.29.61S361.54,488,360.86,487.92Z"/>
            <path class="cls-4" d="M392.48,480c-.07-.74-.5-2-1-2.09s-.8-.12-.8.43-.43.86-.43,1.41-.31,1.73.86,1.3S392.54,480.73,392.48,480Z"/>
            <path class="cls-4" d="M393.52,482.08c-.31-.18-1.29.06-1.54.12a.48.48,0,0,0,.37.87C393.09,482.94,393.83,482.27,393.52,482.08Z"/>
            <path class="cls-4" d="M378.38,535.79c-1.26.5-1,1.48-.32,1.48S378.71,535.66,378.38,535.79Z"/>
            <path class="cls-4" d="M405.25,485.18c-1.08-.73-2.84-2.93-3.48-2.92s-.65-.52-1.49.14.34,1.17-.49,2-.19,1.29-2.43,1.34-3.31,0-3.18.71.38,2.77.81,3,3.42.46,4.21,2.26,2.45,9.13,2.89,10,.9,1.8,1.2,1.15-.52-4.16.09-5.88,1.84-3.77,1.82-4.63S406.34,485.9,405.25,485.18Z"/>
            <path class="cls-4" d="M568.36,343.67c1.22-2.1,2.79-3.86,2.86-5.71s-.52-7.92-1.13-9.41-2.61-3.73-3.09-4.76-4.71-4.73-4.75-6.57-.21-4,.13-4.6,1.33-2,.51-2.55-1.62-.76-1.64-1.57-.15-1.61-1.07-1.59-2.51.86-2.54-.4.15-3.34-.43-3.79-1.53-1.58-1.2-2,2.19-5.34,2-7.3-1.67-2.72-.9-4.12,2-3.84,2.45-3.62,1.77,2,2.33,1.33a24.13,24.13,0,0,0,2.6-7.19c.08-1.73-.17-2.53.05-3s1.26-.6.4-2.77c-.11-.29-.22-.55-.31-.79-.32.38-.59.71-.75.92a20.71,20.71,0,0,1-2.94,2.8c-1.07.84-.76,2.74-.74,3.42s-2.19.05-3.29-.33-1.4-1.61-3.31-1.57-.79,1.25-1.46,2-.64,1.78-1,2.61-1.23,0-2.16,1.14-1.89,1.14-2.68,2.11-1.48,1.4-2.44,1.15-2.06-.64-3.12.88-1.58,2.5-2.66,3.2-1.51-.37-2.46-.49-3.65,2-4.62.92-2.68-3.49-4.2-4.27a45.47,45.47,0,0,0-4.68-1.81c-1.65-.65-1.68-2-2.63-2s0-1.5-1.3-3.11-1.64-.1-2.45.46-.66,1-.92,1.53-1.49.44-2,2.09-1.88,1.54-3.65,1.85-2.07-1.18-4.52-1-.89,3.3-1.82,4.27-1.5,0-3,.07a5.05,5.05,0,0,0-3.25,1c-1.49.85-3.27.48-4.22.64s.72,1.76,1.7,2.83.59,2.17.62,3.26,1.39,1.47,2.91,2.26.71,1.21,1,2.43,1.83,2.14,2.95,3.76-1.72,2.36-3.2,3.48-.09,1.78-.2,3.14-1.64-.23-3.56-.46-2.45.19-4.23.23a4,4,0,0,1-3.59-2.11c-.57-1.08-2.52-2.53-4-4s-.86-1.76-2.09-2a27.3,27.3,0,0,0-3.56-.2c-1.5-.1-2.06-.91-4.4-1.68s-3.26.62-4.61,1.34a5.91,5.91,0,0,1-5.05.24c-1.79-.77-1.13-1.61-2.91-2s-1.26-1.47-1.56-2.69-1.83-2.56-2.26-3.64c-.25-.61-.76-1.6-1.16-2.58l-.05.17c0-.17-.05-.34-.07-.49a1.4,1.4,0,0,0-.52.51,9.31,9.31,0,0,0-1.41,2.82c-.16.78,0,2.5-1.72,2.66s-2.66.78-3.29-.63-2-2-2-3,1.25-2,.78-3-4.53-1.88-5.47-2.66-1.88.15-2.35.31-1.09-1.25-1.72-1.25-1.41,2-2.5,2.19-.94-2-1.72-1.88S431.8,291,431,291s-1.25-2.5-1.87-1.72-2.19,3.6-3.76,3.44-1.87-1.1-2.5-.63-1.25,1.88-2,1.57a8.71,8.71,0,0,0-3.6-.78c-1.72,0-3.29-1.88-4.38-1.73s-1.25,1.73-2.35,1.41,0-2.66-.94-2.34-2.34,1.87-3.12,2-1.41-.47-2.19-.16a11.86,11.86,0,0,1-3.13,1.41c-1.57.31-1.25-1.72-2.19-1.09s-2.5.93-2.82,1.4-1.41.47-2.66-.93-3.28-.16-5.16-.63-2.35-3-3.28-2.82c-2.43.41-1.73,1.41-3.13,1.88-1.88.63-2.43-1.68-3.91-.94a8.91,8.91,0,0,1-2.66,1.57c-1.57.47-1.1-.79-2.5,0s-1.1,1.87-3.13,1.87-4.54-.93-5.32,0-1.88,1.25-3.44,1.57-2.66,1.56-3.6,2.34a19.76,19.76,0,0,1-4.07,2.66c-1.4.63-2.19-.15-2.81.78s0,2.35-.78,3.6-1.57,1.72-1.57,2.51.47,2.34-.31,3-4.69,2.81-5.48,4.38-2.81,5-2.81,5.94,1.56,1.72,0,2.5-7.82,1.57-7.67,3.13,1.88,1.88,2.19,3.29-.78.78-1.87,1.25a15,15,0,0,1-4.38,1.09c-1.1,0-3.76-.93-5-.15s-2.19,1.09-.94,2.81,1.25,5,1.1,6.1-.31,2.51-.31,3-1.73,2.35,0,3.92,2,4.22,3.44,6.1,2,2.19,2.5,3,2,1.87,1.09,3.13-.47,1.87,0,3.12,1.26,1.57.63,2.51-1.41,1.87-.63,2.34,1.72,1.41.79,2.66-2.19,4.07-.16,5.63,3.13.63,4.69,1.72a36.3,36.3,0,0,1,3.6,3.29c1.41,1.25,1.72,1.25,1.88,2.66s1.25.62,2.19,2-.47,3-1.25,3.91-.32,3.6-.79,5.16-1.25,3.13-.62,4.38,2.19,2.19,3.13,4.07.31,3.44.78,5,2.81,5.47,2.81,6.41c0,.27.07,3.91.12,4.2,1.86,1.69,1.52-.51,3.38-.68,1.38-.12-.95,1.59-.34,2.2,1.69,1.69,3.4-1.63,4.23-1.35s2.7.68,2.49,2c0,.29-.29,1.91-1.82.39-.9-.91-1.22-.11-1.77.63s-.65,1.56,0,1.56.55-.09,1.29.56,2,.27,1.47.64-.92.65-1.38.37-1.29-.92-1.29.09c0,.16,0,.32,0,.47a.75.75,0,0,0-.15.24c-.5,1.52.85,5.24,1.53,7.1a2.12,2.12,0,0,1-.11,2c-.61-.3-.79-.29-1.21.23-.56.69-.25,1.6-.12,2.28s.67,1.59.49,2.21-.74,1.23-.49,2,1.72,2,2.15,1.35,1.41-1.66,1.17-2.89-.8-2.09-.74-2.28a2.51,2.51,0,0,0-.1-2.14c.11-.55.27-1.44.48-2.89.14-1-1.32-2.89.38-3.63a3.66,3.66,0,0,0,.07.42c.18.74,1.66,1.57,1.94,2.12s.92,1.39,1.38.74.28-2.21.46-1.84a10.68,10.68,0,0,0,1.11,2.58c.65.83,1,2.31.18,1.48s-1.1-1.29-1.84-1.29-1.48.55-1.94.55.09.74.37,1.29-.74,2.4.65,2.95,1.93,0,2,.56.73,2,.09,1.57a1.92,1.92,0,0,0-2.58.55,6.45,6.45,0,0,0-.83,3.14c.18.55,2.12,1.38,2.12,2.49s-1,3.6-.93,4.79,1.39,3.88,1.2,4.62-1.56,1.84-1.2,2.58,2.31,1.29,2.4,1.94.46.92,1.48.92,1.94-1.57,3.23-2,2.21-.74,2.95-.09,2.31,2.4,3.42,1.85,1.75-.93,1.75-2.13-.83-.46.09-2.58,1.29-3.6,1.75-4.52.56-1.57,0-1.57.37-.83.74-1.38a1,1,0,0,0,0-1.2c-.18-.37.83-.46,1.57-.46s1.94-.84,2.49.09.92,3.5,2.12,3.5,2.49-.83,2.59.56-.19,2,.39,3.3,2.75,4.14,2.75,5.29-.46,3.21-1.26,3.67-.8,1.38-.92,2.19.8,1.26.12,1.49-4-.69-5.06.57-1.49,3.22-2.18,3.68-1.61,2.53-.69,2.53,2.07,1.15,2.76,1.84,1.95-.46,2.06.8.92,1.61-.23,1.72-1.26,2.07-.34,1.84.23-1.49,1-1.38,1.15.81,2.19.35,1.26-1.27,1.95-1,3.22.92,2.3,0-3.33-1.95-2.42-2.41,1.27.23,2.19.69,1.49,1.15,3.21,0,2.19-1.49,2.07-2.64-.46-3.1,0-4,.46-.12.81.57,1,.23,1.14,1.15.69,2.53,2.07,2.87,4.37,1.61,6.55,1.61a7,7,0,0,0,1.67-.19s1,.23,1.78.5.68.37,1.26.36.87.17,1.34,0,.27-1.07,1.34-.42,1,.27,1.47,1.32.24,2.11,1.11,2.19,1.13-.9,2.31,0,1.67,1.5,2.73,1.67a2.21,2.21,0,0,1,1.85,1.12c.3.57-.67.1.31,1.14a10.56,10.56,0,0,0,2.08,1.53,14.21,14.21,0,0,0,2.56-2.85,23.15,23.15,0,0,1,2.22-3.5c.57-.58.56-.93,1.82-1s2.55.52,3.7.5a13.37,13.37,0,0,1,2.3.29c1,.09,4.84.12,5.63-.58a16.59,16.59,0,0,0,3.59-3.88,10.15,10.15,0,0,1,4.07-3.54c1.59-1,3.64-2,3-3.18s-1.42-1.81-1.43-2.61S451,463.17,451,461.9s1.32-2.56,2.22-3.61,1.73.42,3.24,1,1.52,1.12,3.83,1.3,3.1-.19,3.81.72,1.67,2.61,2.1,1.45.19-2.08,1-3.13,2.69-3,3-2.94a4.78,4.78,0,0,0,4.27.59,53.17,53.17,0,0,0,6.86-2.11c1.59-.72,3.87-1.81,4.8-1.48s4.67,3.34,4.82,4.61-.61,3.81.43,3.9,1.62.65,2.18-.05.17-3.11,1.33-2.56,4.12,4.28,6.42,4.23,3.33-.53,4.37-.1,1.75.89,1.14-.6-2-3.4-2.18-4.78-.52-2.87.17-2.88,2.31.64,2.06-.28-.87-2.85-1.12-3.77-1.54-2-2-1.8-1.24,1.3-2.06.74-3.76-3.48-3.89-4.4a1.44,1.44,0,0,0-1.76-1.34c-1,.13-2.86.75-3.12-.74s-.64-2.86-1.68-3.07-1.18-1.24-1.19-1.93a34.06,34.06,0,0,1,1.24-6.12c.44-1-.26-1.38-.29-3s-2.7-2.36-3-3.5a3.35,3.35,0,0,1,.63-2.89c.56-.59.07-2,1.58-1.42s2.92,1.89,3.83,1.64.88-1.74,2-2.92.52-2.42,1.65-3.26,1.6-.38,2.89.4,1.51.66,3.12.62a9.88,9.88,0,0,1,5,1c1.17.78,1.18,1.59,2.68,1.44s2-1.08,3.2-.65,3.26,1.43,3.24.74-2.71-3-2.15-3.75.75-2.55,1.42-3.49.42-1.62,1.1-2.09-2.35-2.37-2.16-3.87.76-2.08,1.57-1.76.61,1.26,1.75.77.55-1.16,1.94-.73a11.57,11.57,0,0,0,3.8.26c.92,0,.7.56,1.74.53s.43-1.16,1.48-.83.82.67,1.61.31,1.06-4.29,2.89-4.9a5.46,5.46,0,0,1,3.79-.31c1.38.31,3.45.26,5.94-1.75a43.72,43.72,0,0,0,5.64-5.07c.67-.94,1.36-1.07,1.92-1.88s.3-2,1.91-2,3.06-1.8,4.67-2.18A3.31,3.31,0,0,1,560,389c.59.68,2.14,3.29,2.7,2.59s.77-1.74,1.22-2.21,4.1-1.7,4.43-2.75-.2-3.56.82-4.39,1.46-1.53,1-2.21-1.52-.77-.61-1.59,1.35-1.07,1.34-1.64-1.09-2.4-1-4,.29-2.42-.41-3.1-1-.66-.73-1.82,1-2-.32-3.68-2.72-3.62-3.11-5.45a9.15,9.15,0,0,1-.41-3c.11-.35-.93-.67.08-1.73S567.14,345.76,568.36,343.67ZM423,381.76c-1,.57-3.71.35-5.57.19s-3.56-2.26-4.6-2.58-2.49-.22-3.75-1.23-1.76-2-2.64-4.27-1.69-5-2.88-5.72-1.7.65-2.8.89-2.71-1.05-3.48-1.72-3.49-2.47-4.34-3.2-1.08.57-1.3.23-.44-1.16-1-1.49-1.43-2.72-1.59-3.41-1-1.63-1.16-2.79-1.47-1.35-2.12-2.43-.19-2.34-.2-3.16.16-1.87-.4-2.47-.32-1.92.07-2.76.83-.15,1.44-.17,2.64,1,4.23,1.29,4.77.79,6.37,1.58,4.18,2.52,5.11,4.15,2.67,5.65,3.54,7.49a37.68,37.68,0,0,1,2.84,7c.39,2,1.78,2.85,3,3.71s3.85-.36,5-.93,2-.32,3.38.2,1.76,1.95,2.28,3.46-1.39,2.44-1.65,3.06.64,1,1.41,1.62-1.14,1.4-.78,1.88,1.7-.59,2.4,0S424,381.18,423,381.76Z"/>
          </g>
        </g>
      </g>
    </g>
    <g class="cls-5">
      <g class="cls-6">
        <path class="cls-4" d="M420.34,917c-.71-3.33-.95-7.62-2.62-10.72s-2.86-6.91-4.05-7.86-1.67-1.19-1.67-3.57-3.57-9.77-6.19-12.15-1.19-3.58-1.43-5.24-2.14-2.15-4.53-5.72-2.38-4-2.86-6.91-.47-2.38-2.38-4.29a6.85,6.85,0,0,0-3.81-2.38,19,19,0,0,1-2.6-1.13,18.59,18.59,0,0,1-7.17-6.5c-3.33-5.24-2.62-12.15-2.62-14.29s-1.19-11.67-1.19-13.34,3.34-3.81,2.38-5.48-7.38-9.05-6.67-11.2,2.38-3.81,2.38-5.48,3.1-4.76,2.62-6.43-1.9-4.05-1.66-6.19a13,13,0,0,1,1.81-3.77c1.44-2.42,3.15-5.16,2.71-6.48-.71-2.14-1.9-4.29-1.9-7.14s-1-16-1.43-18.35S358.4,720.48,356,719.29s-11.68-5.72-14.3-9.29-2.86-3.58-5-5.25a9,9,0,0,0-1-.68c-1.68-1-3.07-1.33-4.47-4.32-1.67-3.57-3.57-10.48-6.19-12.15s-6.91-1-8.82-1.91c-.7-.34-2.3-1.13-3.6-1.66a12.29,12.29,0,0,0-.27,2.57c-.31,1.52.45,2.12.3,3.19s-1.82,2.12-3.49,3.34a7.61,7.61,0,0,0-3.19,4.1,12.5,12.5,0,0,0-.61,4.55c0,1.52-.76,1.22-1.36,1.67s-2.43,1.52-3.19,2.89-.31,1.51-2,1.51-2.27-2-2.73-2.27-1.06.6-2.28,1.06-1.52-.91-1.67-2.28-.15-2-1.21-2.27,0,0-1.37-1.67-1.52-1.37-3.49-.31-2.73,1.82-4.71,1.82-1.82-.15-2.88,1.07-1.07,1.82-2.43,1.67-2.13-.16-3,.6-.76,2.74-.76,3.8-1.52,2.43-4.25,3.34-2.43.3-3.19-.91-.76-2.88-2.12-2.88-1.22.3-2.74-2.28-.6-1.37.31-2.74.61-1.51,1.52-3,2.43-.46,3.34-1.37-.31-2.58.6-3.49-.15-.76-.45-1.52a3.41,3.41,0,0,1,.61-3c.76-1.06-1.52-1.36-2.28-3s.45-1.22,1.52-1.52.45-1.82.15-2.89-1.52,0-2.58.16-2.43-1.22-3.19-1.37-1.37,1.21-2.28,1.67-.61-.15-1.67-.3-1.52.15-2.88-.46-.76-2,0-2.58-.31-1.67-1.07-2.73.31-2.74-.45-3.8-1.67-.76-2.73-.91-.61-1.52-.92-2.13-1.36.76-2.42,1.67-1.22,1.07-3.65.61-4.55-2.58-5.46-3-1.22.15-2.74,0-2.73-1.07-4.55-2.28a3.21,3.21,0,0,1-1.37-3.24s-1.06-3.59-2-3.75-1.22,1.22-1.83,1.07-2.12-2-2.27-1.07S221,665,220.19,665s.76,1.57,1.22,2.48-.3,1.36-1.22,2.12-.15,2.28-.3,3.34c-.1.69-.49-2.69-1.88-1.87,0,.07-.07,3.45-.06,3.53l-.24.89h0c.56,2.82,1.53,6.46,3.36,8.34a4.29,4.29,0,0,0,.82.68c3.33,2.15,5,7.86,5.72,11.44s1.9,16,1.19,17.15a5.82,5.82,0,0,0-.43,3,12.4,12.4,0,0,0,.43,2.72,68.49,68.49,0,0,0,1.9,7.86c1.18,3.31,2.6,10.82,1.69,11.64,0,0,0,0,0,0-1,.72-3.81,2.15-2.62,4.29s2.14,6.43,3.81,6.43,2.86-.23,2.86,1,2.62,1.19,2.62,3.09,2.62,2.86,1.91,4.53,2.62,4.29,1,4.77a2.27,2.27,0,0,0-.71,3.81c1.19.95,1.19,3.81-.24,6.19a10,10,0,0,0-1,7.15c.48,1.67,1.67,6.67,3.34,6.67s4.29,1.91,5,4,5.48,1.91,3.82,2.62-2.86,1.91-3.82,1.91-3.33,0-3.33,2.14,2.62,4.53,4.52,4.53a1,1,0,0,1,.59.15c.78.56-.55,2.5,1.08,2.71,1.91.23,4.05,3.33,6,4.52s3.81,1.67,6,5.48,6.2,10.49,9.3,12.39,3.33,4.53,3.57,6.43,1.67,5,1.67,6.67.47,3.34-1.19,4.53-3.82,2.86-1.91,4.53,5.24,1.66,5.48,2.62,3.33,5.24,5.48,6.43c1.44.8,6.82,2.24,10.44,3.6,1.78.67,3.14,1.33,3.38,1.88.71,1.67,2.86,7.62,5.24,7.86a10,10,0,0,1,2.7.68,14.35,14.35,0,0,1,3.73,2.18c2.14,1.67,6.43,6.91,10,7.62,2.91.59,8.82,2.75,11.43,4.56a3.64,3.64,0,0,1,1.19,1.16c1,1.91,4.53,3.34,5.72,5s1.91,5.48,4.29,5.48,3.81-1,5.24,0,3.81,3.1,6.43,4,5.72,3.82,10.25,6.2,10,2.62,10.72,4.76,4.52,11.2,6.43,11.44.71-2.62,1.91-2.15c.94.38,1.45-.27,2.92.27,1.61-3.07,3.51-6.43,4.36-6.43,1.43,0,2.95,1.15,3.67.43s1.37-.37,3.23.5c1.45.67,5.67.86,8,.91.43-2.12.77-4.47.21-5.44-.95-1.67-3.57-5.48-2.38-4.29s3.81,5.48,5,5S413.67,912,413,913s-2.62,2.39-2.39,4.77,1,3.81,3.58,3.33S421.06,920.36,420.34,917Z"/>
      </g>
    </g>
  </g>
  <g id="txt_neighborhoods" data-name="txt neighborhoods">
    <text class="cls-7" transform="translate(426.56 358.51)"><tspan class="cls-8"></tspan><tspan x="15.52" y="0"></tspan><tspan class="cls-9" x="31.52" y="0"></tspan><tspan class="cls-10" x="47.2" y="0"></tspan></text>
    <text class="cls-7" transform="translate(543.58 428.96)"><tspan class="cls-11"></tspan><tspan class="cls-12" x="13.92" y="0"></tspan><tspan class="cls-13" x="28.64" y="0"></tspan><tspan x="43.04" y="0"></tspan></text>
    <text class="cls-7" transform="translate(449.79 186.15)"><tspan class="cls-14" x="16" y="0"></tspan><tspan x="30.88" y="0"></tspan></text>
    <text class="cls-7" transform="translate(9.52 120.43)"><tspan class="cls-15"></tspan><tspan class="cls-16" x="13.6" y="0"></tspan><tspan class="cls-10" x="27.84" y="0"></tspan><tspan class="cls-9" x="43.68" y="0"></tspan><tspan x="59.36" y="0"></tspan></text>
  </g>
</svg>
