<svg id="レイヤー_1" data-name="レイヤー 1" xmlns="http://www.w3.org/2000/svg" viewBox="0 0 46 74"><defs><style>.cls-1{fill:#fdc300;}.cls-2{fill:#e71784;}</style></defs><path class="cls-1" d="M42,59.86a7,7,0,0,1-5.66,6.87v2.1A1.17,1.17,0,0,1,35.16,70h-.79a1.17,1.17,0,0,1-1.18-1.17v-2H12.81v2A1.17,1.17,0,0,1,11.63,70h-.79a1.17,1.17,0,0,1-1.18-1.17v-2.1A7,7,0,0,1,4,59.86V28.66a7.07,7.07,0,0,1,7.1-7H34.9a7.07,7.07,0,0,1,7.1,7Z"/><path class="cls-2" d="M12.16,60.1a2,2,0,0,1-2-2V32.58a2,2,0,0,1,3.93,0V58.15A2,2,0,0,1,12.16,60.1Z"/><path class="cls-2" d="M19.39,60.1a2,2,0,0,1-2-2V32.58a2,2,0,0,1,3.93,0V58.15A2,2,0,0,1,19.39,60.1Z"/><path class="cls-2" d="M26.61,60.1a2,2,0,0,1-2-2V32.58a2,2,0,0,1,3.94,0V58.15A2,2,0,0,1,26.61,60.1Z"/><path class="cls-2" d="M33.84,60.1a2,2,0,0,1-2-2V32.58a2,2,0,0,1,3.93,0V58.15A2,2,0,0,1,33.84,60.1Z"/><path class="cls-2" d="M42.73,20.85a11.05,11.05,0,0,0-7.83-3.21h-.45V11.78a5.47,5.47,0,0,0,4.07-5.25V5.45A5.47,5.47,0,0,0,33.05,0H13A5.46,5.46,0,0,0,7.49,5.45V6.53a5.46,5.46,0,0,0,4.06,5.25v5.86H11.1A11.08,11.08,0,0,0,0,28.66v31.2a11.06,11.06,0,0,0,5.7,9.62A5.19,5.19,0,0,0,10.84,74h.79a5.19,5.19,0,0,0,4.76-3.13H29.61A5.19,5.19,0,0,0,34.37,74h.79a5.19,5.19,0,0,0,5.14-4.52A11.06,11.06,0,0,0,46,59.86V28.66A10.92,10.92,0,0,0,42.73,20.85Zm-14.8-3.23V12h2.92v5.64ZM11.49,6.53V5.45A1.45,1.45,0,0,1,13,4h20.1a1.46,1.46,0,0,1,1.47,1.45V6.53A1.52,1.52,0,0,1,33.05,8H13a1.5,1.5,0,0,1-1.46-1.45ZM18.07,12v5.64H15.15V12Zm4,5.64V12h2.26v5.66H22.07ZM42,59.86a7,7,0,0,1-5.66,6.87v2.1A1.17,1.17,0,0,1,35.16,70h-.79a1.17,1.17,0,0,1-1.18-1.17v-2H12.81v2A1.17,1.17,0,0,1,11.63,70h-.79a1.17,1.17,0,0,1-1.18-1.17v-2.1A7,7,0,0,1,4,59.86V28.66a7.07,7.07,0,0,1,7.1-7H34.9a7.07,7.07,0,0,1,7.1,7Z"/></svg>