<svg id="レイヤー_1" data-name="レイヤー 1" xmlns="http://www.w3.org/2000/svg" viewBox="0 0 40.04 30.16"><defs><style>.cls-1{fill:#999;}</style></defs><path class="cls-1" d="M36.87,3.73C34.92,2.2,28,1,20,1S5.13,2.2,3.18,3.73C1.39,5.14,1,11.48,1,15.08s.39,10,2.18,11.35C5.13,28,12,29.16,20,29.16s14.9-1.2,16.85-2.73C38.66,25,39,18.68,39,15.08S38.66,5.14,36.87,3.73ZM25.73,15.25,16.9,20.38a.22.22,0,0,1-.21,0,.22.22,0,0,1-.11-.18V10a.23.23,0,0,1,.11-.18.26.26,0,0,1,.21,0l8.83,5.13a.19.19,0,0,1,0,.34Z"/></svg>