<svg id="レイヤー_1" data-name="レイヤー 1" xmlns="http://www.w3.org/2000/svg" viewBox="0 0 34.43 34.11"><defs><style>.cls-1{fill:#999;}</style></defs><path class="cls-1" d="M24,1H10.48A9.44,9.44,0,0,0,1,10.39V23.72a9.44,9.44,0,0,0,9.48,9.39H24a9.44,9.44,0,0,0,9.48-9.39V10.39A9.44,9.44,0,0,0,24,1Zm6.46,22.72A6.44,6.44,0,0,1,24,30.12H10.48A6.44,6.44,0,0,1,4,23.72V10.39A6.44,6.44,0,0,1,10.48,4H24a6.44,6.44,0,0,1,6.46,6.4ZM25.88,6.49a2,2,0,1,0,2,2A2,2,0,0,0,25.88,6.49ZM17.22,8.75a8.31,8.31,0,1,0,8.38,8.31A8.36,8.36,0,0,0,17.22,8.75Zm0,13.61a5.31,5.31,0,1,1,5.36-5.3A5.33,5.33,0,0,1,17.22,22.36Z"/></svg>