<svg id="レイヤー_1" data-name="レイヤー 1" xmlns="http://www.w3.org/2000/svg" viewBox="0 0 100 52"><defs><style>.cls-1{fill:#fdc300;}.cls-2{fill:#e71784;}</style></defs><path class="cls-1" d="M49.07,14.79a11,11,0,0,0-7.88,3.28,11.25,11.25,0,0,0,0,15.86,11.12,11.12,0,0,0,15.77,0,11.26,11.26,0,0,0,0-15.86A11,11,0,0,0,49.07,14.79Z"/><path class="cls-2" d="M49.07,4A22,22,0,1,1,27.18,26,22,22,0,0,1,49.07,4m0-4A26,26,0,1,0,75,26,26,26,0,0,0,49.07,0Z"/><path class="cls-2" d="M12.68,6.19c1.09,0,1.87.95,1.87,2.38v36.2a2.49,2.49,0,0,1-2.48,2.49H10.15a2.49,2.49,0,0,1-2.48-2.49V32h-3c-.88,0-.59-3.52-.59-3.52A91.5,91.5,0,0,1,7.26,13.56c1.55-5.38,3.82-7.37,5.42-7.37m0-4c-1.9,0-6.59,1-9.26,10.26A94.77,94.77,0,0,0,.07,28.12C-.31,32.71.92,34,1.45,34.61a4.42,4.42,0,0,0,2.22,1.3v8.86a6.5,6.5,0,0,0,6.48,6.49h1.92a6.49,6.49,0,0,0,6.48-6.49V8.57c0-3.64-2.52-6.38-5.87-6.38Z"/><path class="cls-2" d="M49.07,41.21a15.23,15.23,0,0,1-10.72-26,15.14,15.14,0,0,1,21.44,0h0a15.22,15.22,0,0,1-10.72,26Zm0-26.42a11,11,0,0,0-7.88,3.28,11.25,11.25,0,0,0,0,15.86,11.12,11.12,0,0,0,15.77,0,11.26,11.26,0,0,0,0-15.86A11,11,0,0,0,49.07,14.79Z"/><path class="cls-2" d="M93.91,6.62A2.09,2.09,0,0,1,96,8.72v9.06c0,3.9-1,4.94-2,6s-1.67,1.49-1.67,2.79V44.77a2.49,2.49,0,0,1-2.48,2.49H87.9a2.49,2.49,0,0,1-2.48-2.49V26.53c0-1.3-.56-1.67-1.67-2.79s-2-2.06-2-6V8.72a2.1,2.1,0,0,1,2.09-2.1h0c.83,0,.92.68.92,1.51v9.65h2.83V8.13a1.51,1.51,0,1,1,3,0v9.65H93V8.13c0-.83.09-1.51.92-1.51h0m0-4h0a5.1,5.1,0,0,0-2.35.59,5.5,5.5,0,0,0-5.18.12,5.11,5.11,0,0,0-2.56-.71,6.11,6.11,0,0,0-6.1,6.1v9.06c0,5.15,1.58,7.17,3.2,8.79l.41.41.09.08V44.77a6.5,6.5,0,0,0,6.48,6.49h1.92a6.49,6.49,0,0,0,6.48-6.49V27.06l.1-.08.41-.42C98.42,25,100,22.93,100,17.78V8.72a6.08,6.08,0,0,0-6.09-6.1Z"/></svg>