<svg id="design" xmlns="http://www.w3.org/2000/svg" xmlns:xlink="http://www.w3.org/1999/xlink" viewBox="0 0 32.31 32.31"><defs><style>.cls-1{mask:url(#mask);}.cls-2{fill:#fff;}.cls-3{fill:#005bac;}</style><mask id="mask" x="-1.47" y="-1.47" width="35.69" height="35.69" maskUnits="userSpaceOnUse"/></defs><g class="cls-1"><path class="cls-2" d="M16.15,32.31A16.16,16.16,0,1,0,0,16.15,16.17,16.17,0,0,0,16.15,32.31"/></g><path class="cls-3" d="M19.25,9.17c0,.08.05.13,0,.22s.16.13.27.15a9.75,9.75,0,0,0,2.21.27,8.26,8.26,0,0,0,2.08-.12c.17,0,.44-.21.44-.28s-.17-.14-.25-.14a.58.58,0,0,1-.27-.12,3.78,3.78,0,0,0-1-.07c-.29,0-1.67.1-1.84.12a1.81,1.81,0,0,1-1-.09,4.38,4.38,0,0,0-.4-.37.73.73,0,0,0-.3-.09c-.07,0-.14.07-.1.14a1.11,1.11,0,0,1,.18.38"/><path class="cls-3" d="M26,20.65c-.14,0-5.15,0-5.49,0s-.93,0-1.06-.06c-.84-.24-1-.63-1-.69s0-.09,0-.1l.11-.17a.22.22,0,0,0,0-.22l-.21-.59c0-.05,0-.13-.08-.13s-.06.09-.13.09-.09-.21-.1-.38a12.11,12.11,0,0,1-.07-1.29c0-.11,0-1.18,0-1.34a2.39,2.39,0,0,0-.17-1,.18.18,0,0,1,0-.2,3.43,3.43,0,0,1,.27-.28q.11-.11,0-.18l-.68-.32a5,5,0,0,0-.69-.3,1.19,1.19,0,0,0-.44.08.45.45,0,0,1-.23,0c-.06,0-1.37-.73-1.48-.8a.62.62,0,0,1-.19-.25c0-.08-.07-.16-.11-.16s-.05.19-.05.19,0,1.09,0,1.35a.29.29,0,0,0-.09.15s.06.11,0,.15a.53.53,0,0,0-.16.55,1.85,1.85,0,0,0,.3.75,2.07,2.07,0,0,0,.27-.79.6.6,0,0,0-.21-.52s0-.1,0-.14a.24.24,0,0,0-.1-.15V13c0-.08.1-.06.17,0s1.39,1.22,1.5,1.31a1.22,1.22,0,0,1,.25.41.43.43,0,0,0,.14.21,1.89,1.89,0,0,1,.32.25c.29.27.22.72.18,1.11s-.47,2.28-.52,2.58a.92.92,0,0,1-.18.45.29.29,0,0,0,0,.3,1.15,1.15,0,0,1,.14.49,2.81,2.81,0,0,0,1.1,2.05,3.22,3.22,0,0,0,2,.78l5.4-.1c.21,0,.28-.11.42-.31a6.6,6.6,0,0,0,1.05-1.72c.09-.18,0-.15-.19-.17"/><path class="cls-3" d="M16.12,17.79c-.05-.08-.28-.08-.28-.08a.73.73,0,0,0-.35,0c-.12.06-.44.09-.64-.32s-.61-1.18-.66-1.3a.39.39,0,0,0-.27-.24s0,0-.12-.25-.46-1.9-.49-2-.06-.14-.11-.15a.26.26,0,0,1-.13-.21,10.26,10.26,0,0,1-.3-1.38c0-.32,0-1.53,0-1.66s0-.2-.1-.21-.13,0-.13-.16V9.5l5.75,0s.22,0,.22,0-.18,0-.22,0H12.53V8.69a6.5,6.5,0,0,0,0-.95.68.68,0,0,0-.24-.37c-.09,0-.15-.09-.16-.13s0-.06-.06,0-.06.1-.19.16-.31.28-.31.69c0,.12,0,.86-.07,1.32H7.68s-.13,0-.13.07.1.06.13.06h3.78c0,.15,0,.27,0,.29s0,.2-.07.21-.16,0-.16.24c0,0-.05,1.26-.05,1.36a1.55,1.55,0,0,1-.06.39c0,.12-.4,1.25-.44,1.32s-.08.12-.12.12-.14,0-.17.17-.51,1.77-.6,2-.13.32-.23.33a.25.25,0,0,0-.21.13c-.09.12-1.14,1.62-1.2,1.69a.23.23,0,0,1-.22.1c-.1,0-.36-.05-.4-.12a3.68,3.68,0,0,0-.23-.44,2,2,0,0,1-.3-.45,2.18,2.18,0,0,1-.08-.53c0-.15,0-.3-.05-.35a.62.62,0,0,1,0-.31,4.87,4.87,0,0,0,0-.85c0-.11-.1-.2-.15-.2a.34.34,0,0,0-.19.19c0,.11,0,.66,0,.82a.78.78,0,0,1-.06.36.41.41,0,0,0-.08.19c0,.08,0,.31,0,.36a.51.51,0,0,1,0,.2c0,.06-.25.42-.32.49a2.09,2.09,0,0,0-.19.36.26.26,0,0,1-.13.17l-.35.11c-.08,0-.09.07-.08.15a2.83,2.83,0,0,0,.08.28H16.05a1,1,0,0,0,.07-.48"/><path class="cls-3" d="M27,17.83a1.07,1.07,0,0,1-.26-.06,1.71,1.71,0,0,0-.43-.08c-.12,0-.18-.13-.21-.21a.61.61,0,0,0-.3-.25,5.25,5.25,0,0,0-.59-.24,2.28,2.28,0,0,0-.57.23.76.76,0,0,0-.36.38.39.39,0,0,1-.35.19c-.13,0-.24-.1-.34-.18a.88.88,0,0,0-.27-.1c-.11,0-.09-.19-.08-.31s-.07-.15-.13-.19-.3-.18-.45-.24a.44.44,0,0,0-.36,0c-.12.05-.19.24-.27.4a1.15,1.15,0,0,1-.45.42.51.51,0,0,1-.51-.09,1.71,1.71,0,0,0-.35-.2c-.09,0-.25.12-.34.18a.84.84,0,0,1-.42.16c-.16,0-.19-.12-.22-.23a.19.19,0,0,0-.14-.16.3.3,0,0,1-.11-.15c0-.07-.12-.24-.16-.35a1.23,1.23,0,0,1,0-.47.58.58,0,0,0-.08-.32,8.32,8.32,0,0,1,0-1c0-.23-.12-.36-.17-.36s-.18.17-.22.28a7.23,7.23,0,0,0,0,.87c0,.29-.06.32-.1.37a2.61,2.61,0,0,0,0,.46,2.08,2.08,0,0,1-.34.64,1.57,1.57,0,0,0,0,.7,1,1,0,0,0,.08.35h8.74a1.39,1.39,0,0,0,.09-.35c0-.11-.11-.09-.19-.09"/><path class="cls-3" d="M24,4.74l-.88,1.38a.12.12,0,0,1-.18,0l-.68-.4a.14.14,0,0,1,0-.21s.4-.67.45-.79.16-.23.12-.29-.17,0-.17,0L21.29,5c-.24.11-.31,0-.31,0s-.52-.19-.66-.26-.16-.05-.2-.14a.36.36,0,0,1,0-.24l.27-.79c0-.17-.12-.18-.28-.25S20,3.15,20,3.15s.09-.3.13-.38a.32.32,0,0,1,.19-.19c.09-.05.27,0,.27,0l.82.31a.55.55,0,0,1,.3.24c0,.06,0,.25,0,.25l-.13.31c0,.08-.06.12,0,.14a.11.11,0,0,0,.08,0l.75-.32a.45.45,0,0,1,.41,0c.11.07.83.45,1,.56a.47.47,0,0,1,.25.31.92.92,0,0,1-.1.32M18,2.46s-.14,1.4-.18,1.62-.13.11-.13.11l-.79-.06A.12.12,0,0,1,16.82,4s0-.78,0-.91,0-.28,0-.32-.15.07-.15.07l-.9,1.11c-.15.2-.25.18-.25.18l-.71.06c-.16,0-.16,0-.24,0a.43.43,0,0,1-.11-.22s-.08-.65-.12-.82S14.18,3,14,3s-.2-.17-.2-.17-.06-.32-.07-.41a.37.37,0,0,1,.09-.25c.06-.09.26-.1.26-.1L15,2a.59.59,0,0,1,.37.07c.06,0,.12.22.12.22s0,.26,0,.34,0,.14,0,.13.06,0,.06,0l.53-.63a.48.48,0,0,1,.38-.15c.14,0,.93,0,1.14.06a.47.47,0,0,1,.36.17c.06.07.05.33.05.33M12.12,4.78s-.58.25-.73.3A.12.12,0,0,1,11.21,5s-.32-.73-.38-.84-.09-.26-.17-.26-.11.12-.11.12-.23,1.13-.28,1.4-.15.27-.15.27l-.6.38c-.14.08-.14.09-.24.08A.46.46,0,0,1,9.09,6l-.48-.68c-.1-.14-.21,0-.36.07A.19.19,0,0,1,8,5.33L7.75,5a.34.34,0,0,1,0-.27c0-.1.19-.2.19-.2l.73-.48A.62.62,0,0,1,9,4c.07,0,.2.15.2.15s.14.22.19.28,0,.12.09.1,0-.07,0-.07.13-.58.17-.8A.51.51,0,0,1,10,3.3l1-.47a.42.42,0,0,1,.4,0c.09,0,.19.27.19.27l.59,1.52a.12.12,0,0,1-.08.16m4-3.22A14.56,14.56,0,0,0,1.71,18.27H4.63a13.24,13.24,0,0,1-.19-2.11,11.71,11.71,0,0,1,23.42,0,11.27,11.27,0,0,1-.19,2.11H30.6A14.62,14.62,0,0,0,16.15,1.56"/><path class="cls-3" d="M15.14,30.31l.18-2a.44.44,0,0,0-.41-.52.44.44,0,0,0-.51.44l-.19,2.06a.41.41,0,0,0,.42.5.42.42,0,0,0,.51-.43m-.26,0a.2.2,0,0,1-.22.2c-.11,0-.19-.08-.17-.23l.18-2.07a.23.23,0,0,1,.22-.22c.11,0,.18.1.17.25Z"/><path class="cls-3" d="M22.52,28.84,21.62,27a.44.44,0,0,0-.61-.24.45.45,0,0,0-.22.66l.89,1.86a.43.43,0,0,0,.63.21.43.43,0,0,0,.21-.63m-.24.13a.19.19,0,0,1-.08.28.19.19,0,0,1-.27-.11L21,27.26a.22.22,0,0,1,.07-.3.2.2,0,0,1,.28.13Z"/><path class="cls-3" d="M3.26,22.08l1.89-.83a.44.44,0,0,0,.26-.61.45.45,0,0,0-.64-.24l-1.9.83a.41.41,0,0,0-.23.61.43.43,0,0,0,.62.24m-.12-.25a.2.2,0,0,1-.29-.09c0-.1,0-.2.13-.26l1.9-.83a.23.23,0,0,1,.31.08A.2.2,0,0,1,5,21Z"/><path class="cls-3" d="M10.18,29.55A.41.41,0,0,1,10,29l1-2.24a.07.07,0,0,1,.09,0l.09,0s.06.05,0,.09l-1,2.18a.5.5,0,0,0,0,.13s0,.17.08.2.2,0,.26-.12l1-2.24a.06.06,0,0,1,.08,0l.11,0s0,.05,0,.09l-1,2.23a.41.41,0,0,1-.58.26"/><path class="cls-3" d="M3.31,23.26a.39.39,0,0,1,.16-.62L5.62,21.4a.08.08,0,0,1,.1,0l.07.1a.06.06,0,0,1,0,.09l-2.1,1.21a.43.43,0,0,0-.1.09s-.11.14,0,.22a.22.22,0,0,0,.31.05L6,22s.08,0,.1,0l.07.11a.07.07,0,0,1,0,.09L4,23.4a.45.45,0,0,1-.67-.14"/><path class="cls-3" d="M18.25,27.94a.06.06,0,0,0-.05.08l.55,2.45a.06.06,0,0,1-.05.08l-.15,0s-.08,0-.08-.06L18,28.07s0-.05-.08-.05l-.18,0s-.07,0-.08-.06l0-.11s0-.07.05-.07l.69-.15a.07.07,0,0,1,.08.05l0,.11a.07.07,0,0,1-.05.08Z"/><path class="cls-3" d="M12.51,27.57a.05.05,0,0,0-.08,0L11.54,30a.06.06,0,0,1-.09,0l-.14-.06a.08.08,0,0,1,0-.09l.94-2.31a.06.06,0,0,0,0-.08L12,27.32a.07.07,0,0,1,0-.09l.05-.1a.06.06,0,0,1,.08,0l.66.26a.06.06,0,0,1,0,.08l0,.11a.08.08,0,0,1-.09,0Z"/><path class="cls-3" d="M4.73,19.71a.08.08,0,0,0-.09,0l-2.36.85a.08.08,0,0,1-.09,0l0-.16a.09.09,0,0,1,0-.08l2.38-.79a.06.06,0,0,0,0-.08v-.19s0-.07,0-.09l.11,0a.07.07,0,0,1,.08,0l.23.66a.08.08,0,0,1,0,.09l-.11,0a.06.06,0,0,1-.08,0Z"/><path class="cls-3" d="M23.75,25.41a.06.06,0,0,0,0,.09l1.56,2s0,.08,0,.09l-.13.1a.09.09,0,0,1-.1,0l-1.5-2a.06.06,0,0,0-.09,0l-.18.06a.07.07,0,0,1-.09,0l-.07-.09a.07.07,0,0,1,0-.09l.55-.43a.09.09,0,0,1,.11,0l.06.1s0,.06,0,.09Z"/><path class="cls-3" d="M17.42,30.73a.06.06,0,0,1-.06-.06L17,27.88a.09.09,0,0,1,.06-.08h.09s.08,0,.08.05l.37,2.79s0,.07-.06.08Z"/><path class="cls-3" d="M4.93,25.52a.06.06,0,0,1,0-.1L7,23.55a0,0,0,0,1,.08,0l.08.07a.07.07,0,0,1,0,.09L5.1,25.61a.06.06,0,0,1-.09,0Z"/><path class="cls-3" d="M28.06,24.61a0,0,0,0,1-.08,0l-2.24-1.71a.07.07,0,0,1,0-.09l.06-.08a.06.06,0,0,1,.09,0l2.25,1.69a.06.06,0,0,1,0,.09Z"/><path class="cls-3" d="M22.71,27.34a.07.07,0,0,0,0,.09l.68,1.38a.06.06,0,0,1,0,.09l-.1.05a.07.07,0,0,1-.09,0L21.89,26.4a.08.08,0,0,1,0-.09l.47-.22a.06.06,0,0,1,.09,0l0,.09a.06.06,0,0,1,0,.09l-.23.12a.06.06,0,0,0,0,.09l.29.59a.07.07,0,0,0,.09,0l.24-.12s.06,0,.09,0l0,.1a.05.05,0,0,1,0,.08Z"/><polygon class="cls-3" points="28.43 24 26 22.35 26.14 22.15 28.32 23.63 28.59 23.25 28.83 23.41 28.43 24"/><path class="cls-3" d="M26.66,26.22l-2-2a.09.09,0,0,0-.1,0l-.08.09a.07.07,0,0,0,0,.09l.73.74c0,.07,0,.17-.06.21a.27.27,0,0,1-.29.06l-.66-.73a.05.05,0,0,0-.09,0l-.09.07a.09.09,0,0,0,0,.1l.7.78a.28.28,0,0,1,0,.13s0,.08,0,.11a.23.23,0,0,0,.13.05H25l.92,1A.07.07,0,0,0,26,27l.09-.08a.06.06,0,0,0,0-.09l-.91-1a.21.21,0,0,1,.06-.22c.11-.07.18-.12.27-.11l1,1a.07.07,0,0,0,.1,0l.08-.08a.09.09,0,0,0,0-.1"/><path class="cls-3" d="M13.47,30.46l.58-2.75a.06.06,0,0,0-.05-.08l-.12,0a.07.07,0,0,0-.08.05l-.21,1a.31.31,0,0,1-.22.07.32.32,0,0,1-.2-.22l.26-1a.07.07,0,0,0,0-.08l-.13,0a.08.08,0,0,0-.07.05l-.27,1s-.08.08-.11.08-.09,0-.09.07a.18.18,0,0,0,0,.13.53.53,0,0,0,.06.1l-.36,1.34a.07.07,0,0,0,.05.08l.12,0a.07.07,0,0,0,.08-.05L13.06,29a.21.21,0,0,1,.22-.06.41.41,0,0,1,.23.16l-.28,1.34a.06.06,0,0,0,0,.08l.12,0a.07.07,0,0,0,.08-.05"/><path class="cls-3" d="M25.38,23.9a.2.2,0,0,1-.05-.29c.07-.08.18-.09.3,0l.55.49a.2.2,0,0,1,0,.21.36.36,0,0,1-.18.1Zm1.07.45,1.06.95.17-.2-1.89-1.67a.4.4,0,0,0-.64,0,.43.43,0,0,0,.07.65l.47.42a.11.11,0,0,0,0,0s.06.15,0,.2a.1.1,0,0,0,0,.12.42.42,0,0,0,.14,0c.05,0,.16-.05.2,0h0l1,.85.16-.19-1.07-.95a.24.24,0,0,1,.05-.16.57.57,0,0,1,.2-.13"/><path class="cls-3" d="M26.94,21.51c-.13-.07-.16-.18-.11-.27a.18.18,0,0,1,.28-.06l.66.34a.29.29,0,0,1,0,.22.46.46,0,0,1-.16.13Zm1.14.18,1.27.67.12-.22L27.23,21a.4.4,0,0,0-.61.18.42.42,0,0,0,.22.61l.55.3,0,0a.59.59,0,0,1,.09.18c0,.06,0,.09,0,.09s.07,0,.13,0,.14-.08.21,0h0l1.13.6.12-.23L27.91,22a.18.18,0,0,1,0-.16.58.58,0,0,1,.16-.18"/><path class="cls-3" d="M16.16,28c.1,0,.2.06.2.15l0,.77a.17.17,0,0,1-.14.16s0,0,0,0l-.11,0a.18.18,0,0,1-.09-.13l0-.77c0-.1.08-.16.19-.16m.51,1.67c0-.36-.13-.42-.21-.43.15,0,.19-.37.19-.37v-.59c0-.32-.12-.47-.52-.47l-.37,0a.07.07,0,0,0-.07.07l0,1a.36.36,0,0,1-.11.16s-.07.05-.07.08a.15.15,0,0,0,.07.12s.11.08.12.14l0,1.27a.09.09,0,0,0,.08.07H16a.08.08,0,0,0,.08-.07l0-1.26a.08.08,0,0,1,.07-.07h.06a.2.2,0,0,1,.22.18s0,.1,0,.13l0,1a.08.08,0,0,0,.08.07l.14,0c.05,0,.08,0,.08-.06Z"/><path class="cls-3" d="M6.5,23c.06.09.06.2,0,.24l-.61.47a.16.16,0,0,1-.21,0s0,0,0-.05a.41.41,0,0,1,0-.09.16.16,0,0,1,.06-.15l.62-.46A.18.18,0,0,1,6.5,23M5.43,24.35c.29-.22.26-.35.23-.41.11.1.4-.07.4-.07l.12-.07.36-.27c.26-.19.32-.38.09-.7l-.23-.29a.07.07,0,0,0-.1,0l-.83.61s-.15,0-.19,0-.08,0-.1,0a.18.18,0,0,0-.07.12c0,.06,0,.14,0,.19l-1,.76a.09.09,0,0,0,0,.1l.1.12a.08.08,0,0,0,.1,0l1-.75a.07.07,0,0,1,.09,0l0,0a.2.2,0,0,1,0,.28l-.11.09-.81.59a.09.09,0,0,0,0,.1l.1.12a.08.08,0,0,0,.1,0Z"/><path class="cls-3" d="M6.8,24.64a2.36,2.36,0,0,1-.51.89,1.21,1.21,0,0,1-.76.31s-.07,0-.07.06v.16a.06.06,0,0,0,.06.06,1.54,1.54,0,0,0,1-.37,2.62,2.62,0,0,0,.58-1,.69.69,0,0,1,.48-.42.07.07,0,0,0,.05-.08l0-.16s0-.06-.07,0a1,1,0,0,0-.68.61"/><path class="cls-3" d="M6.65,27.16l1.27-1.07a.06.06,0,0,1,.08,0s0,0,0,.05v0a0,0,0,0,1,0,0l-.87,1.37a.08.08,0,0,0,0,.1l.08.05a.07.07,0,0,0,.09,0l1.5-2.36a.07.07,0,0,0,0-.09l-.07-.06a.07.07,0,0,0-.1,0l-1.18,1s0,0-.06,0a0,0,0,0,1,0,0l.71-1.31.07-.09a0,0,0,0,0,0-.07l-.06-.08a.07.07,0,0,0-.1,0L6,26.47a.09.09,0,0,0,0,.1l.07.07a.06.06,0,0,0,.09,0l1.17-1.09h.06a0,0,0,0,1,0,.05l0,0-.78,1.42s0,.06,0,.09a.08.08,0,0,0,.1,0"/><path class="cls-3" d="M10,26.51a.21.21,0,0,1,.29-.09c.09,0,.12.16,0,.29l-.4.66a.22.22,0,0,1-.22,0c-.06-.06-.11-.1-.12-.17Zm-.26,1.17L9,29l.22.13,1.34-2.23a.4.4,0,0,0-.13-.64.43.43,0,0,0-.64.18l-.34.55-.05,0a.59.59,0,0,1-.18.09.08.08,0,0,0-.11,0,.29.29,0,0,0,0,.14c0,.06.07.16,0,.22s0,0,0,0l-.69,1.13.23.13.76-1.27a.16.16,0,0,1,.16,0,.42.42,0,0,1,.16.17"/><path class="cls-3" d="M20.28,30.11l-.39-1.2a.4.4,0,0,0,.19-.53l-.36-1.05a.08.08,0,0,0-.09,0l-.14,0a.06.06,0,0,0,0,.08l.35,1a.28.28,0,0,1,0,.13s0,.17-.12.21-.22-.1-.22-.1a.37.37,0,0,1,0-.11l-.35-1s-.05-.06-.08,0l-.15.05a.08.08,0,0,0,0,.09l.36,1.06a.42.42,0,0,0,.5.32L20,30.21a.07.07,0,0,0,.08,0l.12-.05s.06-.05,0-.09"/><path class="cls-3" d="M27.84,19.15h0A1.4,1.4,0,0,1,28.94,19h0a1.52,1.52,0,0,1,.82.72v0s0,0,0,0l-1.92-.6s0,0,0,0m1.2-.4h0a1.48,1.48,0,0,0-1.66.52s0,0,0,0l2.67.84a0,0,0,0,0,0,0A1.51,1.51,0,0,0,29,18.75"/><path class="cls-3" d="M27.3,19.7s0,.07,0,.07l1.46.58s0,0,0,0l-1.67-.07a.07.07,0,0,0-.08.05l0,.05s0,.07.07.1l2.54,1.08s.09,0,.1,0l0-.06s0-.08-.06-.09L28,20.6s0,0,0,0l2,.11s.07,0,.1,0a.32.32,0,0,0,0-.08.07.07,0,0,0,0-.08l-2.62-1a.06.06,0,0,0-.08,0Z"/></svg>