<svg id="レイヤー_1" data-name="レイヤー 1" xmlns="http://www.w3.org/2000/svg" viewBox="0 0 51.95 85.88"><defs><style>.cls-1{fill:#e71784;}.cls-2{fill:#fdc300;}</style></defs><path class="cls-1" d="M46.84,29.37c-.46-.63-1.23-.22-1.4-1.22.08-.32.75-.42.14-.52-2.72-.4-3.8-3.71-2.85-6.11.34-1.67-1.89-2.15-2.56-3.26-1-1.57-1.49-2.56-3.23-2.66-2.47-1.6-2.16,1.73-3.67,1.88-.81.1-1.25,1.06-1.61.89-.12-.86-1.94-1.28-2.76-2-.53,1.15-1.74.44-1.77,1.56-1.13.14-.69.94-1.6.92-.34.42-1.59,2-2.16.73,0-1.56,1.93-3,.39-4.34,1.47-1.35,1.37-3.12.75-4.87,0-.43.88-.88,0-1.08-.58.44-1.51-.73-2,.32-.35.43-.91-.33-1.32.18-1.92-1.64,1.32-2.4-.91-4.19C19.7,4.28,19,7.18,18.86,5.46c-.48-.51-1.05-.75-1.5.11-.46.27-1.72-.47-1.7-.09,1.24,1.7-.86,1.16-1.79,1.28s0,1.54-.77,1.65c-1.21-.23-2.91,1.16-4.14,0-.59-.21-.6,0-.56.71-2,.57-.32,2.28-1.5,3.15-.5.63.42,1.37.11,2.31-.55-.17-1,.47-1.33.35-.75-.28-.92-.57-.33.53.17,1.35.7,0,1.07.67a9.53,9.53,0,0,1,.35,2.4,36.65,36.65,0,0,0,3.94,4.34c0,.24.11.23.24.38-.07.11-.41.24,0,.39-.8.33,0,.77.22,1.17s.31,1.41.63,1.62c1-1.54,1.26-.29.54.7-.67-.33-.72.34-1.24.27-.06.92.56,4-.67,3.64-.34,0,0,.57-.2.5-.52-.55-1.26.41-1,1C10,36.76,14.91,37,14.37,42c-.95,0,0,2.13.41,2.53.06.48.93.43.69.95s.51,1.35.28,1.86.65-.09.4.2a1.82,1.82,0,0,0,.49,1.59c-.93,1.6-2.34,3.39-3.26,4.84-.39.37-.85.36-1.21,1,.41,1.34-.75,3.35-1.34,4.27.2.24.15.2,0,.37-.09.36.38,0,.15.38-.24-.12-.27.07-.13.26-.05.23-.29-.12-.24.2s.38.12.32.18c-.29.19-.14.19-.34,0A16.23,16.23,0,0,1,10,62.43c-.41.06.08.67.16.73s-.29,0-.27.22.2.38.06.24c-.73-.44-.19.68-.37,1-.59,1.26.58,3.29,0,4.38.08.14.27.51.13.76.27.52.25-.2.48-.22.22.29-.24.1-.06.3.21,0,.35-.2.21-.35s.28,0,.19-.16c.23-.21-.33-.23,0-.26.14-.27-.3.1-.18-.26.12-.11.17,0,.09-.21.46-.63-.44-.26-.37-.85.31.49.71.13.59-.51a2.67,2.67,0,0,1,.72-.43c.27-.18.12.22.08.34-.07.68.43-.48.48.21.21.25,0,.83.31,1.22.05-.29.26,0,.35.1.18-.15.37-.3.58,0-.23.08.09.34.14.78.11,0,.13-.43,0-.43.42,0-.14.58.28.49.34-.83-.34.42,0,.74-.49.17.57,1.82.21.72,0-.29.65-.59-.1-.72.28.24.31-.57.32-.37a1,1,0,0,0,.67.56c-.23,0,.42.86.45,1.29-.22.36.85.91.74.34.13.16.25.19.38.12-.48.25.12,1.22.42.75.13.18.07.34.43.18-.55.55-.28,1-.3,1.44s.57-.31.68.43c.52.11.61.61.69.94.7,0,1,1.86,1.15-.4.1-.6.77,0,.76.41.49.33,1.55.92,2,.43.55.22.37,1.33.84,1.35,1.34-.54.88.36,1.09,1.28-1,.61-.48,1,.1,1.89.76-.54,1.15-1.67,2.41-1.53.32.57.28.7.84.7.38.49.76-.8.93-1.15,1.12-.87.48-1.38-.33-2.11-1.06-.77-1.9-3.16-3.26-2.64,1.45.06-1,.63-1.67.13-1.82-1.09-1-1.66-2.3-1.31-.3-.39-2.68-2.74-1-3.24.74.62-.76,1.78.48,1.15.39.33-.45.37-.2.77,0,.79.22-.13.24-.35.38-.33,0,1.34.54,1.23.36.61-.8-5.91-1.84-6.49.61,1.41-.41-.05-.8-.47-.31-1.07,0-2-.42-2.74,0-2.15-2,0-2.84-.43-.13-.11-.47.14-.45-.27.57-1.23-1.3-3.66.09-4.91-.34.13-.79-1-.07-.55.26,0,.4-.31.07-.53s.27-.32,0-.34a9,9,0,0,1,1.13-1.89c-.23.74.41-.12,0-.31.27-2.28,1.16-3.74,2.53-6.17.21-1.23-.64-3.16.56-4.56-2.06-2.68,2.91-2.58,4.39-2.06.07.72-.71,1.52-.21,2.21-.66.37.25,1-.29,1.23-.53.55.2.63.5.94.92-1.13,2.79.58,3.82-.59.49-.09.72.51.88.71.23.37.64-.06.72.45.45.23-.35-.61.18-.24-.08.29.57,1.16,1,1.11,0-.36-.51-.71-.25-.56.16-.21.45,1.13.55.26.33.11-.21.41-.42.43.15.15,0,.49.29.54.44-.28,1.15.67,1.38.61-.18-.19-.07-.47-.13-.61.47-.64,1.71,2.7,1.85,2.62a22.15,22.15,0,0,0-1-2.61c-.05-.71.67-1.26.09-1.64-.19-.5-1-.68-1.14-1.06.44-1.5-.93-2.31-.82-4.28,1.47-.15,2.3-1.67,3.11-3.37,2.86-1.74,5.13-.59,8-.77,1.22-.75,2-.21,2.88.73.41-.44.64-.9,1.26-.84,1.51-.72.47-2.52,1.36-3.13-1.21-.72-.43-1-.21-1.75-1.2.12.82-.95.22-1.83"/><path class="cls-1" d="M24.11,84.88a4.25,4.25,0,0,1-.71-.06,4,4,0,0,1-2.6-1.7l-.17-.23a6.12,6.12,0,0,1-1.1-2.3,4.08,4.08,0,0,1-3.46-1.24,4,4,0,0,1-1.28-1.22,3.89,3.89,0,0,1-1-.81,4.07,4.07,0,0,1-.94-2l-.18-.15a4.11,4.11,0,0,1-2-1.31,3.6,3.6,0,0,1-.74.09,4,4,0,0,1-3.84-2.39A4.16,4.16,0,0,1,5.65,70a4.19,4.19,0,0,1,0-2.08c0-.11,0-.23-.07-.35A8.55,8.55,0,0,1,5.53,64a4.73,4.73,0,0,1,.28-1.9,5.54,5.54,0,0,1,.11-.56,4.09,4.09,0,0,1,.53-1.19l0-.1.15-.5a4.84,4.84,0,0,1,.23-.85,3.92,3.92,0,0,1,.59-1.83,7.66,7.66,0,0,0,.77-1.48,4,4,0,0,1,.54-2.76,5.62,5.62,0,0,1,1.75-1.77l.92-1.31L12,49a4.24,4.24,0,0,1-.26-1.46c-.05-.14-.09-.29-.14-.46a3.54,3.54,0,0,1-.26-.41,6.52,6.52,0,0,1-1.06-5.83s0,0,0-.05a7.37,7.37,0,0,0-1.17-1.28,11.1,11.1,0,0,1-3.72-6,5,5,0,0,1,1.77-5.22,8.25,8.25,0,0,1,0-1.21,4.09,4.09,0,0,1,.15-.85,4.35,4.35,0,0,1-.63-1.7c-.66-.69-1.23-1.38-1.79-2.05-.35-.42-.71-.87-1.13-1.34a4,4,0,0,1-1-2.21,4.45,4.45,0,0,1-1.25-2.16,4.15,4.15,0,0,1,.52-4.84A4.25,4.25,0,0,1,3,11.2a4,4,0,0,1,.38-.85A5.34,5.34,0,0,1,4.83,6.67,4.1,4.1,0,0,1,6.07,5.16a4.35,4.35,0,0,1,4.21-.56l.06,0A4.47,4.47,0,0,1,12.49,3a3.56,3.56,0,0,1,.71-.74,4.08,4.08,0,0,1,3-.88,4.28,4.28,0,0,1,1.21-.34,4.49,4.49,0,0,1,2.15.2,4,4,0,0,1,.84,0,4.3,4.3,0,0,1,3,1.7A6,6,0,0,1,24.9,5.31a3.12,3.12,0,0,1,.52.08,4.37,4.37,0,0,1,3.21,2.68,4.11,4.11,0,0,1,.11,2.62,9.4,9.4,0,0,1,.19,1.68,4,4,0,0,1,2.62,1s0,0,.06,0a5.13,5.13,0,0,1,6.59-1.66,7.49,7.49,0,0,1,5,3.93l.13.21.26.18c.93.65,3.74,2.66,3,6.27a3.31,3.31,0,0,1-.2.68,1.18,1.18,0,0,0,0,.72,4.12,4.12,0,0,1,3.19,2.78,5.56,5.56,0,0,1,.43.5l.08.12a4.65,4.65,0,0,1,.46,4.35c0,.08,0,.17,0,.25a3.88,3.88,0,0,1,.19,1.13,4.29,4.29,0,0,1-.41,1.91,5.6,5.6,0,0,1-3.18,4.93l-.19.09a4,4,0,0,1-2.75,1.14,4,4,0,0,1-2.39-.76l-.28,0a21.23,21.23,0,0,1-3.19-.11,8,8,0,0,0-2.09,0,11.48,11.48,0,0,1-1.43,2.07c.06.2.12.42.17.65a4.48,4.48,0,0,1,.41.52,4.28,4.28,0,0,1,.89,3.7,8.42,8.42,0,0,1,.77,2.28A4,4,0,0,1,32,53.75a4.26,4.26,0,0,1-2.63-2.39L29,51.17a4.28,4.28,0,0,1-2.69-2.12h0l-.05,0a7,7,0,0,1-1.55-.11,4.08,4.08,0,0,1-1.3.28A4.21,4.21,0,0,1,22,49a3.11,3.11,0,0,1-.2.41l-.26.47a14.1,14.1,0,0,0-1.65,3.5,4.48,4.48,0,0,1-.39,2.33,4.62,4.62,0,0,1-.75,1.16,4.2,4.2,0,0,1-.18.84,1.42,1.42,0,0,1,0,.16l0,.2a4.45,4.45,0,0,1,1.18.55,4.64,4.64,0,0,1,2,3.3A6.7,6.7,0,0,1,22,63.39c1.46,1.61,2.23,4.47,2.59,6.7,3-.34,4.88,2.21,5.56,3.13a5.48,5.48,0,0,0,.34.46l.14.12a5.54,5.54,0,0,1,2.28,4.38,4.76,4.76,0,0,1-1.23,3,4.62,4.62,0,0,1-3.53,2.92,4.18,4.18,0,0,1-1.58-.07l-.12.09A4.07,4.07,0,0,1,24.11,84.88Z"/><path class="cls-2" d="M46.84,29.37c-.46-.63-1.23-.22-1.4-1.22.08-.32.75-.42.14-.52-2.72-.4-3.8-3.71-2.85-6.11.34-1.67-1.89-2.15-2.56-3.26-1-1.57-1.49-2.56-3.23-2.66-2.47-1.6-2.16,1.73-3.67,1.88-.81.1-1.25,1.06-1.61.89-.12-.86-1.94-1.28-2.76-2-.53,1.15-1.74.44-1.77,1.56-1.13.14-.69.94-1.6.92-.34.42-1.59,2-2.16.73,0-1.56,1.93-3,.39-4.34,1.47-1.35,1.37-3.12.75-4.87,0-.43.88-.88,0-1.08-.58.44-1.51-.73-2,.32-.35.43-.91-.33-1.32.18-1.92-1.64,1.32-2.4-.91-4.19C19.7,4.28,19,7.18,18.86,5.46c-.48-.51-1.05-.75-1.5.11-.46.27-1.72-.47-1.7-.09,1.24,1.7-.86,1.16-1.79,1.28s0,1.54-.77,1.65c-1.21-.23-2.91,1.16-4.14,0-.59-.21-.6,0-.56.71-2,.57-.32,2.28-1.5,3.15-.5.63.42,1.37.11,2.31-.55-.17-1,.47-1.33.35-.75-.28-.92-.57-.33.53.17,1.35.7,0,1.07.67a9.53,9.53,0,0,1,.35,2.4,36.65,36.65,0,0,0,3.94,4.34c0,.24.11.23.24.38-.07.11-.41.24,0,.39-.8.33,0,.77.22,1.17s.31,1.41.63,1.62c1-1.54,1.26-.29.54.7-.67-.33-.72.34-1.24.27-.06.92.56,4-.67,3.64-.34,0,0,.57-.2.5-.52-.55-1.26.41-1,1C10,36.76,14.91,37,14.37,42c-.95,0,0,2.13.41,2.53.06.48.93.43.69.95s.51,1.35.28,1.86.65-.09.4.2a1.82,1.82,0,0,0,.49,1.59c-.93,1.6-2.34,3.39-3.26,4.84-.39.37-.85.36-1.21,1,.41,1.34-.75,3.35-1.34,4.27.2.24.15.2,0,.37-.09.36.38,0,.15.38-.24-.12-.27.07-.13.26-.05.23-.29-.12-.24.2s.38.12.32.18c-.29.19-.14.19-.34,0A16.23,16.23,0,0,1,10,62.43c-.41.06.08.67.16.73s-.29,0-.27.22.2.38.06.24c-.73-.44-.19.68-.37,1-.59,1.26.58,3.29,0,4.38.08.14.27.51.13.76.27.52.25-.2.48-.22.22.29-.24.1-.06.3.21,0,.35-.2.21-.35s.28,0,.19-.16c.23-.21-.33-.23,0-.26.14-.27-.3.1-.18-.26.12-.11.17,0,.09-.21.46-.63-.44-.26-.37-.85.31.49.71.13.59-.51a2.67,2.67,0,0,1,.72-.43c.27-.18.12.22.08.34-.07.68.43-.48.48.21.21.25,0,.83.31,1.22.05-.29.26,0,.35.1.18-.15.37-.3.58,0-.23.08.09.34.14.78.11,0,.13-.43,0-.43.42,0-.14.58.28.49.34-.83-.34.42,0,.74-.49.17.57,1.82.21.72,0-.29.65-.59-.1-.72.28.24.31-.57.32-.37a1,1,0,0,0,.67.56c-.23,0,.42.86.45,1.29-.22.36.85.91.74.34.13.16.25.19.38.12-.48.25.12,1.22.42.75.13.18.07.34.43.18-.55.55-.28,1-.3,1.44s.57-.31.68.43c.52.11.61.61.69.94.7,0,1,1.86,1.15-.4.1-.6.77,0,.76.41.49.33,1.55.92,2,.43.55.22.37,1.33.84,1.35,1.34-.54.88.36,1.09,1.28-1,.61-.48,1,.1,1.89.76-.54,1.15-1.67,2.41-1.53.32.57.28.7.84.7.38.49.76-.8.93-1.15,1.12-.87.48-1.38-.33-2.11-1.06-.77-1.9-3.16-3.26-2.64,1.45.06-1,.63-1.67.13-1.82-1.09-1-1.66-2.3-1.31-.3-.39-2.68-2.74-1-3.24.74.62-.76,1.78.48,1.15.39.33-.45.37-.2.77,0,.79.22-.13.24-.35.38-.33,0,1.34.54,1.23.36.61-.8-5.91-1.84-6.49.61,1.41-.41-.05-.8-.47-.31-1.07,0-2-.42-2.74,0-2.15-2,0-2.84-.43-.13-.11-.47.14-.45-.27.57-1.23-1.3-3.66.09-4.91-.34.13-.79-1-.07-.55.26,0,.4-.31.07-.53s.27-.32,0-.34a9,9,0,0,1,1.13-1.89c-.23.74.41-.12,0-.31.27-2.28,1.16-3.74,2.53-6.17.21-1.23-.64-3.16.56-4.56-2.06-2.68,2.91-2.58,4.39-2.06.07.72-.71,1.52-.21,2.21-.66.37.25,1-.29,1.23-.53.55.2.63.5.94.92-1.13,2.79.58,3.82-.59.49-.09.72.51.88.71.23.37.64-.06.72.45.45.23-.35-.61.18-.24-.08.29.57,1.16,1,1.11,0-.36-.51-.71-.25-.56.16-.21.45,1.13.55.26.33.11-.21.41-.42.43.15.15,0,.49.29.54.44-.28,1.15.67,1.38.61-.18-.19-.07-.47-.13-.61.47-.64,1.71,2.7,1.85,2.62a22.15,22.15,0,0,0-1-2.61c-.05-.71.67-1.26.09-1.64-.19-.5-1-.68-1.14-1.06.44-1.5-.93-2.31-.82-4.28,1.47-.15,2.3-1.67,3.11-3.37,2.86-1.74,5.13-.59,8-.77,1.22-.75,2-.21,2.88.73.41-.44.64-.9,1.26-.84,1.51-.72.47-2.52,1.36-3.13-1.21-.72-.43-1-.21-1.75-1.2.12.82-.95.22-1.83"/></svg>