<svg id="レイヤー_1" data-name="レイヤー 1" xmlns="http://www.w3.org/2000/svg" viewBox="0 0 66.21 66.21"><defs><style>.cls-1{fill:#fdc300;}.cls-2{fill:#e71784;}</style></defs><path class="cls-1" d="M39.42,38.76c1.46,0,2.41,0,2.41,0a8.73,8.73,0,0,1-17.46,0H26c3.08,0,9.82,0,13.44,0"/><path class="cls-2" d="M33.1,4A29.11,29.11,0,1,1,4,33.1,29.1,29.1,0,0,1,33.1,4m0-4A33.11,33.11,0,1,0,66.21,33.1,33.14,33.14,0,0,0,33.1,0Z"/><path class="cls-2" d="M43,20.52a4.13,4.13,0,1,1-4.12,4.13A4.13,4.13,0,0,1,43,20.52"/><path class="cls-2" d="M23.16,20.52A4.13,4.13,0,1,1,19,24.65a4.13,4.13,0,0,1,4.12-4.13"/><path class="cls-2" d="M39.42,38.76c1.46,0,2.41,0,2.41,0a8.73,8.73,0,0,1-17.46,0H26c3.08,0,9.82,0,13.44,0m0-3-7.24,0-6.2,0H24.37a3,3,0,0,0-3,3,11.73,11.73,0,0,0,23.46,0c0-3-2.63-3-5.41-3Z"/><path class="cls-2" d="M39.42,35.51l-7.24,0-6.2,0H24.37a3.25,3.25,0,0,0-3.25,3.25,12,12,0,0,0,24,0C45.08,35.51,42.2,35.51,39.42,35.51ZM33.1,47.27A8.48,8.48,0,0,1,24.63,39H26l6.21,0,7.23,0h2.16A8.5,8.5,0,0,1,33.1,47.27Z"/></svg>